<?xml version="1.0" encoding="UTF-8" standalone="no"?>
<!-- Created with Inkscape (http://www.inkscape.org/) -->

<svg
   xmlns:dc="http://purl.org/dc/elements/1.1/"
   xmlns:cc="http://creativecommons.org/ns#"
   xmlns:rdf="http://www.w3.org/1999/02/22-rdf-syntax-ns#"
   xmlns:svg="http://www.w3.org/2000/svg"
   xmlns="http://www.w3.org/2000/svg"
   xmlns:sodipodi="http://sodipodi.sourceforge.net/DTD/sodipodi-0.dtd"
   xmlns:inkscape="http://www.inkscape.org/namespaces/inkscape"
   width="793"
   height="1122"
   viewBox="0 0 209.81458 296.86251"
   version="1.1"
   id="svg8"
   inkscape:version="0.92.4 (5da689c313, 2019-01-14)"
   sodipodi:docname="playercontrol.svg">
  <defs
     id="defs2" />
  <sodipodi:namedview
     id="base"
     pagecolor="#ffffff"
     bordercolor="#666666"
     borderopacity="1.0"
     inkscape:pageopacity="0.0"
     inkscape:pageshadow="2"
     inkscape:zoom="1.6744068"
     inkscape:cx="368.51621"
     inkscape:cy="595.02838"
     inkscape:document-units="mm"
     inkscape:current-layer="g1355"
     showgrid="false"
     showguides="false"
     inkscape:guide-bbox="true"
     inkscape:window-width="1920"
     inkscape:window-height="1027"
     inkscape:window-x="0"
     inkscape:window-y="28"
     inkscape:window-maximized="1"
     units="px">
    <sodipodi:guide
       position="36.427318,162.25279"
       orientation="0,1"
       id="guide1001"
       inkscape:locked="false" />
    <sodipodi:guide
       position="36.427318,174.00562"
       orientation="0,1"
       id="guide1003"
       inkscape:locked="false" />
  </sodipodi:namedview>
  <metadata
     id="metadata5">
    <rdf:RDF>
      <cc:Work
         rdf:about="">
        <dc:format>image/svg+xml</dc:format>
        <dc:type
           rdf:resource="http://purl.org/dc/dcmitype/StillImage" />
        <dc:title></dc:title>
      </cc:Work>
    </rdf:RDF>
  </metadata>
  <g
     inkscape:label="Layer 1"
     inkscape:groupmode="layer"
     id="layer1"
     transform="translate(0,-0.13748322)">
    <g
       id="g1355"
       transform="translate(24.669481,89.114913)">
      <g
         id="g1218"
         style="fill:#00ff00">
        <path
           style="fill:#00ff00;stroke-width:2.4333632"
           inkscape:connector-curvature="0"
           id="path825"
           d="m 25.641884,57.263189 c -2.04765,-0.578118 -3.80067,-1.187846 -3.895571,-1.35497 -0.325803,-0.573689 2.859664,-16.168068 3.360791,-16.452674 0.417079,-0.236766 5.311691,4.475564 6.295792,6.061459 0.338262,0.545049 -1.295717,12.37572 -1.744429,12.630542 -0.161576,0.09174 -1.968932,-0.306263 -4.016583,-0.884357 z M 6.8706295,66.144235 C 6.580013,65.897224 5.7398213,64.284147 5.003583,62.559623 L 3.6649169,59.424089 11.185225,54.988968 c 4.136182,-2.439325 7.621659,-4.256682 7.745517,-4.038556 0.390482,0.687547 -0.864404,8.808799 -1.476127,9.553141 -1.139349,1.386384 -10.0205159,6.119543 -10.5839855,5.640682 z M -8.6174837,57.125412 c -3.0610733,-1.219577 -5.6558413,-2.376398 -5.7661943,-2.570678 -0.222166,-0.391066 3.07908,-6.707444 3.685571,-7.051862 0.413185,-0.234576 14.5717335,5.663531 15.5755688,6.488514 0.4998128,0.410752 -0.163522,0.941201 -3.6594376,2.926582 l -4.2699197,2.424895 z M 30.759563,39.56529 C 29.535022,38.895142 20.626358,27.316251 21.119722,27.036049 c 0.07787,-0.04429 2.243926,-0.127995 4.813606,-0.186396 l 4.672131,-0.106094 3.599844,4.056708 c 2.557854,2.882465 3.539132,4.276855 3.39021,4.817305 -0.260491,0.945167 -6.12935,4.334452 -6.83595,3.947767 z m -40.80127,4.107614 -3.961564,-1.757521 -1.454859,-5.463606 c -0.800163,-3.004984 -1.416193,-5.603889 -1.368961,-5.775344 0.04721,-0.171552 1.833076,-0.562569 3.968499,-0.869173 4.2585555,-0.611407 4.3972815,-0.523197 5.2637778,3.346994 0.2946316,1.31606 1.0033243,4.487195 1.574824,7.046971 0.5714997,2.559776 0.7917677,4.78353 0.489471,4.941674 -0.3022967,0.158169 -2.33233,-0.503365 -4.5111878,-1.469995 z M 15.031886,23.744463 c -4.072258,-0.07373 -7.5423062,-0.366367 -7.7112059,-0.65017 -0.1688754,-0.283779 0.7466288,-2.128098 2.0344862,-4.09849 l 2.3416007,-3.582543 5.015429,-0.08468 c 8.075189,-0.136512 7.53671,-0.44713 7.102622,4.097711 -0.204403,2.141213 -0.598388,4.018942 -0.875329,4.172779 -0.277015,0.153789 -3.835346,0.219247 -7.907603,0.145516 z m -18.9298132,8.059518 c -0.6188529,-1.170253 -3.0049602,-8.018273 -2.9034889,-8.332882 0.3677785,-1.140298 6.01539541,-9.784237 6.44846105,-9.869624 0.51159027,-0.100984 5.68854605,3.911388 6.19310395,4.799858 0.1922357,0.338627 -8.4308491,13.709106 -9.078878,14.077127 -0.1279949,0.07276 -0.4245975,-0.230926 -0.6591981,-0.674479 z" />
      </g>
      <path
         d="m 45.243829,12.21324 q 0,0.0489 -0.01967,0.0782 L 43.1624,14.3532 h -5.071341 q -0.0293,0 -0.07816,-0.0293 -0.03908,-0.0293 -0.03908,-0.0684 v -2.11062 q 0,-0.0197 0.03908,-0.0586 0.03908,-0.0391 0.05864,-0.0391 h 7.07447 q 0.04886,0 0.06842,0.0586 0.0293,0.0586 0.0293,0.1075 z M 40.573114,9.39908 q -0.02931,0 -0.07817,-0.0391 -0.03908,-0.0391 -0.03908,-0.0684 V 7.18097 q 0,-0.0197 0.03908,-0.0586 0.03908,-0.0391 0.05864,-0.0391 h 2.628497 l 2.061759,2.06176 v 2.60895 q 0,0.0293 -0.04886,0.0782 -0.03908,0.0391 -0.06839,0.0391 h -2.07153 q -0.01967,0 -0.07816,-0.0293 -0.04886,-0.0391 -0.04886,-0.0684 V 9.39913 Z M 40.035691,4.60134 h 5.110423 q 0.03908,0 0.06842,0.0489 0.0293,0.0391 0.0293,0.0684 v 2.07153 q 0,0.0197 -0.04886,0.0782 -0.04886,0.0489 -0.06839,0.0489 h -4.836827 v 2.3549 q 0,0.0197 -0.05864,0.0684 -0.04886,0.0489 -0.06839,0.0489 h -2.07153 q -0.02931,0 -0.07816,-0.0293 -0.03908,-0.0293 -0.03908,-0.0684 V 6.66328 Z"
         id="path927"
         inkscape:connector-curvature="0" />
      <path
         d="m 45.494679,14.33362 q -0.0097,-0.01 -0.03908,-0.0293 -0.01967,-0.0293 -0.01967,-0.0489 V 12.1448 q 0,-0.0197 0.03908,-0.0586 0.03908,-0.0391 0.05864,-0.0391 h 7.074467 q 0.0391,0 0.0684,0.0489 0.0293,0.0391 0.0293,0.0684 v 2.07153 q 0,0.0293 -0.0489,0.0782 -0.0391,0.0391 -0.0684,0.0391 h -7.03526 q -0.03908,0 -0.05864,-0.0197 z m 4.709797,-5.20813 q 0.0197,0.0197 0.0197,0.0586 0,0.0293 0,0.0489 0,0.0391 -0.0391,0.1075 -0.0293,0.0586 -0.0782,0.0586 h -2.35501 v 2.3549 q 0,0.0197 -0.05864,0.0684 -0.04886,0.0489 -0.06842,0.0489 H 45.5533 q -0.02931,0 -0.07816,-0.0293 -0.03908,-0.0293 -0.03908,-0.0684 V 7.18104 q 0,-0.0197 0.03908,-0.0586 0.03908,-0.0391 0.05864,-0.0391 h 2.618725 z M 45.43605,6.74127 q 0,-0.0197 0,-0.0489 0,-0.0293 0.01967,-0.0489 l 2.042214,-2.04221 h 5.110422 q 0.0391,0 0.0684,0.0489 0.0293,0.0391 0.0293,0.0684 v 2.07153 q 0,0.0293 -0.0489,0.0782 -0.0391,0.0391 -0.0684,0.0391 h -7.035494 q -0.06842,0 -0.09772,-0.0489 -0.01967,-0.0586 -0.01967,-0.11725 z"
         id="path929"
         inkscape:connector-curvature="0" />
      <path
         d="m 55.438726,14.33362 q -0.01,-0.01 -0.0391,-0.0293 -0.0197,-0.0293 -0.0197,-0.0489 V 7.18095 q 0,-0.0197 0.0391,-0.0586 0.0391,-0.0391 0.0586,-0.0391 h 2.11062 q 0.0391,0 0.0684,0.0489 0.0293,0.0391 0.0293,0.0684 v 7.03538 q 0,0.0293 -0.0489,0.0782 -0.0391,0.0391 -0.0684,0.0391 h -2.0714 q -0.0391,0 -0.0586,-0.0197 z m 4.7098,-7.69006 q 0.0197,0.0197 0.0197,0.0586 0,0.0293 0,0.0489 0,0.0489 -0.0391,0.10749 -0.0293,0.0489 -0.0782,0.0489 h -7.03539 q -0.0293,0 -0.0782,-0.0293 -0.0391,-0.0293 -0.0391,-0.0684 V 4.69914 q 0,-0.0197 0.0391,-0.0586 0.0391,-0.0391 0.0586,-0.0391 h 5.11042 z"
         id="path931"
         inkscape:connector-curvature="0" />
      <path
         d="m 62.900846,14.33362 q -0.01,-0.01 -0.0391,-0.0293 -0.0197,-0.0293 -0.0197,-0.0489 V 7.18095 q 0,-0.0197 0.0391,-0.0586 0.0391,-0.0391 0.0586,-0.0391 h 2.11062 q 0.0391,0 0.0684,0.0489 0.0293,0.0391 0.0293,0.0684 v 7.03538 q 0,0.0293 -0.0489,0.0782 -0.0391,0.0391 -0.0684,0.0391 h -2.07153 q -0.0391,0 -0.0586,-0.0197 z m 4.7098,-7.69006 q 0.0197,0.0197 0.0197,0.0586 0,0.0293 0,0.0489 0,0.0489 -0.0391,0.10749 -0.0293,0.0489 -0.0782,0.0489 h -7.03538 q -0.0293,0 -0.0782,-0.0293 -0.0391,-0.0293 -0.0391,-0.0684 V 4.69914 q 0,-0.0197 0.0391,-0.0586 0.0391,-0.0391 0.0586,-0.0391 h 5.11043 z"
         id="path933"
         inkscape:connector-curvature="0" />
      <path
         d="m 74.994586,12.03735 q 0.0489,0 0.0684,0.0684 0.0293,0.0684 0.0293,0.1075 0,0.0489 -0.0197,0.0782 l -2.06176,2.06176 h -5.07134 q -0.0293,0 -0.0782,-0.0293 -0.0391,-0.0293 -0.0391,-0.0684 V 7.18104 q 0,-0.0197 0.0391,-0.0586 0.0391,-0.0391 0.0586,-0.0391 h 2.11062 q 0.0293,0 0.0684,0.0489 0.0391,0.0391 0.0391,0.0684 v 4.83683 z m -7.05492,-5.12019 q -0.0684,0 -0.0977,-0.0586 -0.0197,-0.0684 -0.0197,-0.11725 0,-0.0197 0,-0.0489 0,-0.0293 0.0197,-0.0489 l 2.04221,-2.04221 h 5.11043 q 0.0391,0 0.0684,0.0489 0.0293,0.0391 0.0293,0.0684 v 7.03539 q 0,0.0293 -0.0489,0.0782 -0.0391,0.0391 -0.0684,0.0391 h -2.07153 q -0.0197,0 -0.0782,-0.0293 -0.0489,-0.0391 -0.0489,-0.0684 V 6.91722 Z"
         id="path935"
         inkscape:connector-curvature="0" />
      <path
         id="path925"
         d="M 31.960938,2.9921875 C 31.844555,3.0038686 31.755926,3.1017828 31.755859,3.21875 V 4.6074219 H 29.238281 C 29.111919,4.6070424 29.009386,4.709575 29.009766,4.8359375 V 5.625 c -3.8e-4,0.1263625 0.102153,0.2288951 0.228515,0.2285156 h 2.517578 v 1.2324219 h -3.15039 c -0.126363,-3.801e-4 -0.228896,0.1021527 -0.228516,0.2285156 v 0.8125 c -3.8e-4,0.1263629 0.102153,0.2288958 0.228516,0.2285157 h 3.234375 v 4.2343752 c -0.584997,-0.319354 -1.073779,-0.812555 -1.408203,-1.732422 0.09241,-0.52829 0.175541,-1.0770292 0.222656,-1.6660158 0.01054,-0.1250496 -0.08202,-0.23508 -0.207031,-0.2460937 l -0.886719,-0.072266 c -0.12646,-0.010489 -0.237119,0.084361 -0.246094,0.2109375 -0.135017,1.89039 -0.558199,3.344885 -1.429687,4.314454 V 7.6367188 c 0.373879,-0.5048007 0.741434,-1.023037 1.029296,-1.5507813 0.06735,-0.123488 0.0078,-0.2779045 -0.125,-0.3242187 L 27.988281,5.4824219 c -0.104187,-0.03624 -0.21937,0.00737 -0.273437,0.1035156 -0.696612,1.2397318 -1.849185,2.4885894 -2.925782,3.28125 -0.105191,0.077402 -0.123919,0.2272092 -0.04102,0.328125 0.134722,0.1658015 0.415341,0.6143464 0.480469,0.7539063 0.06233,0.1330422 0.232428,0.1731772 0.347656,0.082031 0.34174,-0.2698023 0.672235,-0.6096681 1.003906,-0.9414086 v 5.2578146 c -3.79e-4,0.125601 0.100963,0.227817 0.226563,0.228516 h 0.851562 c 0.1256,-6.99e-4 0.226942,-0.102915 0.226563,-0.228516 v -0.265625 c 0.194918,0.144078 0.464827,0.350485 0.541015,0.433594 0.08868,0.09543 0.23917,0.0972 0.330078,0.0039 0.551829,-0.56309 0.905062,-1.296129 1.205079,-2.091797 0.452628,0.693062 0.967875,1.257003 1.625,1.541016 0.760499,0.328692 1.63416,0.425781 2.609374,0.425781 h 1.931641 c 0.107857,-2.1e-4 0.200789,-0.07602 0.222656,-0.18164 0.04503,-0.213909 0.163827,-0.602259 0.263672,-0.765625 0.09576,-0.154642 -0.01938,-0.353622 -0.201172,-0.347657 -0.397544,0.01155 -1.864653,0.01172 -2.15625,0.01172 -0.387448,0 -0.750891,-0.03168 -1.097656,-0.08008 v -2.0625 h 2.566406 c 0.126363,3.8e-4 0.228896,-0.102153 0.228516,-0.228516 V 9.9375 C 35.952421,9.8119025 35.850208,9.7105611 35.724609,9.7109375 H 33.158203 V 8.3554688 h 3.078125 c 0.1256,-6.989e-4 0.226942,-0.1029148 0.226563,-0.2285157 v -0.8125 C 36.46327,7.1888522 36.361927,7.0866364 36.236328,7.0859375 H 33.074219 V 5.8535156 h 2.589843 C 35.790425,5.8538957 35.892958,5.7513629 35.892578,5.625 V 4.8359375 C 35.892958,4.7095746 35.790425,4.6070418 35.664062,4.6074219 H 33.074219 V 3.21875 C 33.07352,3.0931506 32.971304,2.9918083 32.845703,2.9921875 h -0.863281 c -0.0072,-3.377e-4 -0.01432,-3.377e-4 -0.02148,0 z m -4.34961,0.023437 c -0.07518,0.00329 -0.143893,0.043491 -0.183594,0.1074219 -0.505675,0.8044738 -1.57791,1.8468269 -2.484375,2.4589843 -0.118931,0.079624 -0.135854,0.2478982 -0.03516,0.3496094 0.124901,0.1248938 0.351801,0.4427333 0.470707,0.6210943 0.07154,0.1071241 0.217596,0.1336796 0.322266,0.058594 1.045776,-0.7469829 2.196798,-1.8845904 2.933594,-2.933594 0.08496,-0.1227448 0.0309,-0.2926709 -0.109375,-0.34375 L 27.699219,3.0292969 c -0.02811,-0.010287 -0.05798,-0.014933 -0.08789,-0.013672 z"
         inkscape:connector-curvature="0" />
      <path
         id="path937"
         d="m 79.542969,4.4355469 c -0.131457,0.013346 -0.223948,0.1354704 -0.201172,0.265625 0.05751,0.3334207 0.08203,0.7241382 0.08203,1.078125 v 1.8847656 c -1.187925,0.2227552 -2.288455,0.4198441 -2.787108,0.4863281 -0.129992,0.016339 -0.219374,0.1387916 -0.195313,0.2675782 L 76.636719,9.4375 c 0.02395,0.1264335 0.147881,0.2078758 0.273437,0.1796875 0.434852,-0.097842 1.438423,-0.3097079 2.513672,-0.5253906 v 3.3867191 c 0,0.626753 0.120756,1.170353 0.578125,1.521484 0.457369,0.351131 1.170186,0.488281 2.318359,0.488281 1.526641,0 2.752644,-0.09729 3.841797,-0.24414 0.10904,-0.01452 0.19208,-0.104964 0.197266,-0.214844 l 0.04883,-1.042969 c 0.0072,-0.147818 -0.126306,-0.263116 -0.271484,-0.234375 -1.201697,0.228328 -2.347554,0.347656 -3.742188,0.347656 -0.714225,0 -1.119575,-0.07877 -1.300781,-0.199218 -0.0906,-0.06022 -0.138348,-0.124119 -0.175781,-0.228516 -0.03743,-0.104397 -0.05664,-0.253619 -0.05664,-0.449219 V 8.8046875 c 1.010764,-0.2054422 2.03848,-0.4136185 2.839844,-0.5761719 0.53376,-0.108271 0.704917,-0.1434696 0.984375,-0.2011718 -0.424729,0.7306214 -1.041021,1.7093552 -1.777344,2.3769532 -0.112815,0.102343 -0.09519,0.284472 0.03516,0.363281 l 0.84961,0.509766 c 0.09093,0.05473 0.207624,0.03933 0.28125,-0.03711 0.998771,-1.036228 1.947567,-2.5621607 2.511719,-3.5800778 3e-6,-6.5e-4 3e-6,-0.0013 0,-0.00195 0.07695,-0.1429856 0.211309,-0.3490179 0.291015,-0.4628906 0.06976,-0.099439 0.04912,-0.2361357 -0.04688,-0.31055 L 86.113281,6.328125 C 86.040141,6.27106 85.939682,6.264105 85.859375,6.310547 85.755131,6.371328 85.535503,6.4456752 85.279297,6.5039063 84.80162,6.6062362 82.803364,7.0149861 80.861328,7.3945313 V 5.7792969 c 0,-0.3414128 0.02474,-0.7454399 0.08203,-1.078125 0.02358,-0.139003 -0.08362,-0.2657801 -0.224608,-0.265625 h -1.152344 c -0.0078,-4.027e-4 -0.01563,-4.027e-4 -0.02344,0 z"
         inkscape:connector-curvature="0" />
      <path
         id="path939"
         d="m 93.927734,6.8261719 c -0.0226,5.865e-4 -0.04498,0.00454 -0.06641,0.011719 L 92.974609,7.140625 c -0.128693,0.043621 -0.190722,0.1895728 -0.132812,0.3125 0.239305,0.5128205 0.809448,2.0899602 0.931641,2.589844 0.03122,0.13145 0.169414,0.206914 0.296874,0.162109 L 94.96875,9.8886719 C 95.083074,9.8484013 95.145769,9.7255882 95.111328,9.609375 94.944591,9.0449828 94.359749,7.4712472 94.144531,6.9648438 94.107852,6.8782717 94.021708,6.8231706 93.927734,6.8261719 Z m 3.333985,0.3515625 c -0.106637,0.010851 -0.191245,0.094645 -0.203125,0.2011718 -0.177,1.5102565 -0.797555,3.0192998 -1.625,4.0332028 -6.71e-4,6.63e-4 -0.0013,0.0013 -0.002,0.002 -0.957777,1.203066 -2.4668,2.10687 -3.828125,2.494141 -0.167251,0.04626 -0.223253,0.255193 -0.101563,0.378906 l 0.800781,0.824219 c 0.06316,0.06534 0.159141,0.08684 0.244141,0.05469 1.392796,-0.534726 2.906436,-1.502185 4.052734,-2.958985 0.898452,-1.123067 1.430629,-2.4488726 1.763672,-3.800781 0.05136,-0.1670755 0.09748,-0.354903 0.179688,-0.6015625 C 98.583285,7.6843909 98.517386,7.554288 98.396484,7.515625 L 97.351562,7.1875 c -0.02899,-0.00923 -0.05954,-0.012552 -0.08984,-0.00977 z m -6.134766,0.2539064 c -0.03069,-9.065e-4 -0.06125,0.00441 -0.08984,0.015625 L 90.138672,7.8007812 C 90.009515,7.8511856 89.955063,8.0043887 90.023438,8.125 c 0.202412,0.3542574 0.887146,2.085369 1.058593,2.679688 0.03658,0.127777 0.174414,0.197145 0.298828,0.15039 l 0.921875,-0.339844 C 92.419992,10.571742 92.480178,10.441776 92.4375,10.324219 92.203262,9.6831847 91.579821,8.1097694 91.326172,7.5644531 91.290305,7.4860021 91.213164,7.434575 91.126953,7.4316408 Z"
         inkscape:connector-curvature="0" />
      <path
         id="path941"
         d="m 102.38086,4.421875 c -0.14305,3.925e-4 -0.25027,0.1311197 -0.22266,0.2714844 0.0668,0.3451475 0.0918,0.889798 0.0918,1.21875 v 7.0624996 c 0,0.440767 -0.0243,1.034932 -0.0703,1.404297 -0.0171,0.136149 0.0893,0.25632 0.22656,0.25586 h 1.16406 c 0.13722,4.66e-4 0.24363,-0.119707 0.22657,-0.25586 -0.0461,-0.380619 -0.0723,-1.025459 -0.0723,-1.404297 l -0.01,-3.6660152 c 1.33315,0.438253 3.21551,1.1581242 4.43164,1.8164062 0.12029,0.06517 0.27048,0.01022 0.32032,-0.117188 l 0.41211,-1.0312495 c 0.0434,-0.1095234 -0.004,-0.2340884 -0.10913,-0.2871094 C 107.50079,9.055083 105.31846,8.231509 103.71289,7.734375 V 5.9121094 c 0,-0.343862 0.0476,-0.8648807 0.084,-1.2402344 0.0133,-0.1339388 -0.092,-0.2500683 -0.22657,-0.25 z"
         inkscape:connector-curvature="0" />
      <path
         id="path1019"
         d="m 26.652537,17.87435 c 0.0093,-0.12957 0.06016,-0.24526 0.120314,-0.32392 0.120313,-0.15271 0.273019,-0.17585 0.39796,-0.17585 0.379451,0 0.52753,0.25451 0.52753,0.52753 0,0.27765 -0.161961,0.40722 -0.259138,0.45812 -0.09718,0.0509 -0.231372,0.074 -0.351686,0.0648 v 0.30542 c 0.120314,-0.005 0.25451,0.0185 0.351686,0.0648 0.236,0.10643 0.305412,0.34243 0.305412,0.51827 0,0.34244 -0.263765,0.62471 -0.606196,0.62471 -0.194353,0 -0.374823,-0.0833 -0.476627,-0.23137 -0.06016,-0.0833 -0.09718,-0.19898 -0.111059,-0.31004 h -0.342431 c 0.0046,0.11106 0.02314,0.21286 0.06941,0.32392 0.166589,0.39796 0.541412,0.53216 0.860706,0.53216 0.527529,0 0.948627,-0.35169 0.948627,-0.93012 0,-0.53216 -0.337804,-0.70337 -0.444235,-0.74502 0.314667,-0.15733 0.397961,-0.46275 0.397961,-0.68486 0,-0.42573 -0.286902,-0.83294 -0.869961,-0.83294 -0.185098,0 -0.513647,0.0416 -0.717255,0.36094 -0.07867,0.12494 -0.134196,0.28227 -0.14345,0.45349 z"
         inkscape:connector-curvature="0" />
      <path
         id="path1021"
         d="m 30.971941,20.25286 c 0.245255,0 0.555294,-0.12032 0.791294,-0.46275 0.203608,-0.29616 0.310039,-0.69412 0.310039,-1.13372 0,-0.43961 -0.106431,-0.83757 -0.310039,-1.13373 -0.236,-0.34243 -0.546039,-0.46274 -0.791294,-0.46274 -0.245255,0 -0.555294,0.12031 -0.791294,0.46274 -0.203608,0.29616 -0.310039,0.69412 -0.310039,1.13373 0,0.4396 0.106431,0.83756 0.310039,1.13372 0.236,0.34243 0.546039,0.46275 0.791294,0.46275 z m 0,-2.87828 c 0.157333,0 0.370196,0.0833 0.532157,0.34243 0.166588,0.26377 0.226745,0.61545 0.226745,0.93938 0,0.32392 -0.06016,0.6756 -0.226745,0.93937 -0.161961,0.25914 -0.374824,0.34243 -0.532157,0.34243 -0.157333,0 -0.370196,-0.0833 -0.532157,-0.34243 -0.166588,-0.26377 -0.226745,-0.61545 -0.226745,-0.93937 0,-0.32393 0.06016,-0.67561 0.226745,-0.93938 0.161961,-0.25913 0.374824,-0.34243 0.532157,-0.34243 z"
         inkscape:connector-curvature="0" />
      <path
         id="path1023"
         d="m 34.17331,20.19733 h 0.342431 v -3.08651 h -0.680235 l -0.18047,0.32392 h 0.518274 z"
         inkscape:connector-curvature="0" />
      <path
         id="path1025"
         d="m 37.246412,20.27137 1.050431,-1.45302 c 0.231372,-0.3193 0.254509,-0.59232 0.254509,-0.708 0,-0.48589 -0.342431,-1.05043 -1.068941,-1.05043 -0.61545,0 -1.059686,0.44423 -1.059686,1.05968 0,0.57381 0.407216,1.01804 0.99953,1.01804 0.09718,0 0.185098,-0.0139 0.273019,-0.0416 l -0.708,0.98565 z m 0.240627,-2.89679 c 0.430353,0 0.721882,0.32392 0.721882,0.73577 0,0.40259 -0.296157,0.71262 -0.717255,0.71262 -0.421098,0 -0.726509,-0.30078 -0.726509,-0.71262 0,-0.41647 0.296157,-0.73577 0.721882,-0.73577 z"
         inkscape:connector-curvature="0" />
      <path
         id="path1027"
         d="m 43.928097,18.41576 c -0.09255,-0.0648 -0.291529,-0.1851 -0.596941,-0.1851 -0.592313,0 -1.027293,0.43035 -1.027293,1.01804 0,0.57843 0.430352,1.00416 1.027293,1.00416 0.180471,0 0.402589,-0.0463 0.610824,-0.19898 v -0.39796 c -0.175843,0.21286 -0.421098,0.30078 -0.620078,0.30078 -0.342432,0 -0.675608,-0.24526 -0.675608,-0.71263 0,-0.46737 0.323921,-0.71725 0.680235,-0.71725 0.171216,0 0.425725,0.0648 0.601568,0.2869 z"
         inkscape:connector-curvature="0" />
      <path
         id="path1029"
         d="m 45.559605,21.26164 h 0.370196 l 1.411373,-2.9847 h -0.370196 l -0.624706,1.37435 -0.680235,-1.37435 h -0.379451 l 0.883843,1.73992 z"
         inkscape:connector-curvature="0" />
      <path
         id="path1031"
         d="m 49.145916,19.92893 c 0.14345,0.1851 0.36094,0.32393 0.67098,0.32393 0.58306,0 0.92087,-0.47663 0.92087,-1.00416 0,-0.51827 -0.33318,-1.01804 -0.93475,-1.01804 -0.13882,0 -0.43035,0.0324 -0.6571,0.31467 v -1.72141 h -0.333173 v 3.37341 h 0.333173 z m 0.62471,0.0278 c -0.39333,0 -0.64322,-0.31929 -0.64322,-0.71263 0,-0.46274 0.32855,-0.71725 0.63859,-0.71725 0.31004,0 0.62934,0.24988 0.62934,0.72188 0,0.38408 -0.236,0.708 -0.62471,0.708 z"
         inkscape:connector-curvature="0" />
      <path
         id="path1033"
         d="m 53.784766,19.55411 c -0.0417,0.0926 -0.11106,0.18973 -0.19898,0.26377 -0.11106,0.0925 -0.236,0.13882 -0.39334,0.13882 -0.33317,0 -0.60619,-0.25451 -0.61082,-0.65247 h 1.49467 c 0.009,-0.25451 -0.0602,-0.55067 -0.18048,-0.72188 -0.11568,-0.16659 -0.35168,-0.35169 -0.7265,-0.35169 -0.57844,0 -0.93012,0.44424 -0.93012,1.01804 0,0.71263 0.48588,1.00416 0.94863,1.00416 0.24525,0 0.46274,-0.0787 0.63858,-0.236 0.0972,-0.0879 0.18047,-0.20361 0.236,-0.31004 z m -1.18,-0.52753 c 0.0509,-0.2869 0.28227,-0.49976 0.56455,-0.49976 0.28227,0 0.50901,0.19898 0.56454,0.49976 z"
         inkscape:connector-curvature="0" />
      <path
         id="path1035"
         d="m 55.698396,20.19733 h 0.33318 v -1.01341 c 0,-0.31467 0.0555,-0.44424 0.11106,-0.51828 0.0509,-0.0648 0.13419,-0.12031 0.26839,-0.12031 0.0509,0 0.12031,0.0139 0.19435,0.0648 l 0.15734,-0.30078 c -0.0833,-0.0417 -0.19436,-0.0787 -0.29616,-0.0787 -0.25914,0 -0.40259,0.20361 -0.43498,0.25451 v -0.20823 h -0.33318 z"
         inkscape:connector-curvature="0" />
      <path
         id="path1037"
         d="m 59.197806,18.57772 c -0.15271,-0.32855 -0.42573,-0.34706 -0.52753,-0.34706 -0.32392,0 -0.55992,0.19898 -0.55992,0.53678 0,0.0972 0.0139,0.18973 0.0879,0.28228 0.0879,0.10643 0.236,0.18047 0.46737,0.28227 0.18047,0.0787 0.31004,0.13883 0.31004,0.3193 0,0.14345 -0.0972,0.30541 -0.31467,0.30541 -0.24062,0 -0.35168,-0.21286 -0.3887,-0.31467 l -0.2869,0.12032 c 0.16196,0.48125 0.59231,0.49051 0.67098,0.49051 0.37019,0 0.66172,-0.22675 0.66172,-0.62934 0,-0.10643 -0.0185,-0.20823 -0.1018,-0.31004 -0.074,-0.0925 -0.20361,-0.18047 -0.48126,-0.29615 -0.21749,-0.0925 -0.31004,-0.1342 -0.31004,-0.27302 0,-0.14808 0.11106,-0.21749 0.23138,-0.21749 0.12494,0 0.22211,0.0833 0.26839,0.19435 z"
         inkscape:connector-curvature="0" />
      <path
         id="path1039"
         d="m 61.773596,20.25286 c 0.58306,0 1.01804,-0.42573 1.01804,-1.00879 0,-0.58306 -0.43035,-1.01341 -1.01804,-1.01341 -0.58768,0 -1.01804,0.43035 -1.01804,1.01341 0,0.58306 0.43499,1.00879 1.01804,1.00879 z m 0,-1.72604 c 0.35169,0 0.67561,0.24525 0.67561,0.71725 0,0.46737 -0.32855,0.71263 -0.67561,0.71263 -0.34243,0 -0.6756,-0.24063 -0.6756,-0.71263 0,-0.46737 0.32392,-0.71725 0.6756,-0.71725 z"
         inkscape:connector-curvature="0" />
      <path
         id="path1041"
         d="m 64.746776,18.27694 h -0.33317 v 1.15686 c 0,0.236 0.0231,0.41184 0.17584,0.57843 0.17121,0.18047 0.39796,0.24063 0.58769,0.24063 0.18972,0 0.41647,-0.0602 0.58768,-0.24063 0.15271,-0.16659 0.17584,-0.34243 0.17584,-0.57843 v -1.15686 h -0.33317 v 1.11984 c 0,0.13419 0,0.29153 -0.0926,0.41184 -0.0509,0.0648 -0.15271,0.14808 -0.3378,0.14808 -0.1851,0 -0.28691,-0.0833 -0.33781,-0.14808 -0.0926,-0.12031 -0.0926,-0.27765 -0.0926,-0.41184 z"
         inkscape:connector-curvature="0" />
      <path
         id="path1043"
         d="m 67.689226,16.82392 v 3.37341 h 0.33318 v -3.37341 z"
         inkscape:connector-curvature="0" />
      <path
         id="path1045"
         d="m 75.188236,16.4676 -0.24526,0.10643 c 0.12495,0.17122 0.27765,0.44424 0.3702,0.62934 l -0.0787,-0.0463 c -0.074,0.0278 -0.18047,0.0417 -0.30541,0.0417 h -1.24941 c 0.0324,-0.0555 0.0648,-0.11106 0.0925,-0.16196 0.0463,-0.0879 0.12957,-0.24526 0.20824,-0.36557 l -0.4211,-0.1342 c -0.0278,0.12032 -0.10181,0.28228 -0.14808,0.36557 -0.21286,0.4211 -0.68949,1.11985 -1.48541,1.61498 l 0.31004,0.236 c 0.51827,-0.35631 0.93011,-0.8098 1.22627,-1.22164 h 1.56408 c -0.0926,0.37945 -0.32855,0.87458 -0.62933,1.2818 -0.32393,-0.22675 -0.67098,-0.45349 -0.9764,-0.62933 l -0.24988,0.25913 c 0.29616,0.1851 0.65247,0.42573 0.98102,0.66636 -0.41184,0.44886 -1.00878,0.87458 -1.79082,1.11058 l 0.33317,0.29153 c 0.78204,-0.29615 1.35122,-0.71725 1.76306,-1.17537 0.19436,0.14808 0.36557,0.29153 0.50439,0.41647 l 0.27302,-0.31929 c -0.14807,-0.12032 -0.32854,-0.25914 -0.52753,-0.40259 0.34706,-0.472 0.60157,-1.01804 0.72651,-1.44376 0.0231,-0.074 0.0694,-0.18048 0.10644,-0.24526 l -0.21749,-0.12957 0.24525,-0.11106 c -0.0972,-0.18972 -0.26376,-0.46737 -0.37945,-0.63396 z m 0.50902,-0.1851 -0.24526,0.10181 c 0.12957,0.17584 0.28228,0.43498 0.38408,0.63859 l 0.24988,-0.11106 c -0.0879,-0.17122 -0.26839,-0.46275 -0.3887,-0.62934 z"
         inkscape:connector-curvature="0" />
      <path
         id="path1047"
         d="m 77.863236,18.19364 v 0.45349 c 0.14345,-0.0139 0.3887,-0.0231 0.64321,-0.0231 h 2.54047 c 0.20824,0 0.40259,0.0185 0.49514,0.0231 v -0.45349 c -0.1018,0.009 -0.26839,0.0231 -0.49977,0.0231 h -2.53584 c -0.25914,0 -0.50439,-0.0139 -0.64321,-0.0231 z"
         inkscape:connector-curvature="0" />
      <path
         id="path1049"
         d="m 85.619166,16.6018 -0.43035,-0.13883 c -0.0278,0.12032 -0.0972,0.28691 -0.14345,0.36557 -0.19898,0.41647 -0.6571,1.08745 -1.45302,1.56408 l 0.31929,0.24063 c 0.5044,-0.3378 0.8931,-0.74965 1.17538,-1.13835 h 1.56407 c -0.0972,0.42109 -0.37945,1.01804 -0.74039,1.44376 -0.4211,0.49051 -0.99953,0.91161 -1.84635,1.16149 l 0.33318,0.30078 c 0.86996,-0.31929 1.42062,-0.74501 1.84172,-1.25866 0.41184,-0.49977 0.69875,-1.12447 0.82369,-1.59184 0.0231,-0.074 0.0694,-0.18047 0.10643,-0.24526 l -0.31004,-0.18972 c -0.074,0.0324 -0.17584,0.0463 -0.30078,0.0463 h -1.25404 c 0.0416,-0.0648 0.0787,-0.12957 0.11106,-0.19435 0.0416,-0.0879 0.12494,-0.24526 0.2036,-0.36557 z"
         inkscape:connector-curvature="0" />
      <path
         id="path1051"
         d="m 91.380676,16.49074 h -0.44424 c 0.0185,0.14345 0.0231,0.24988 0.0231,0.34706 v 0.43035 h -1.02266 c -0.16197,0 -0.29616,-0.005 -0.43036,-0.0185 0.0139,0.10181 0.0139,0.25914 0.0139,0.35631 v 0.81444 c 0,0.0879 -0.005,0.21286 -0.0139,0.29615 h 0.40259 c -0.0139,-0.074 -0.0185,-0.19435 -0.0185,-0.27764 v -0.82832 h 2.58675 c -0.0417,0.39796 -0.18973,0.95788 -0.43961,1.35122 -0.28228,0.43498 -0.7913,0.78204 -1.25404,0.93012 -0.14808,0.0555 -0.32392,0.10643 -0.48126,0.12956 l 0.30079,0.34706 c 0.84682,-0.23137 1.48541,-0.70337 1.83247,-1.30957 0.25914,-0.44423 0.39333,-1.02266 0.45349,-1.39286 0.0185,-0.0879 0.0463,-0.20823 0.0694,-0.27765 l -0.24988,-0.15733 c -0.0602,0.0231 -0.14808,0.037 -0.3193,0.037 h -1.03655 v -0.43035 c 0,-0.0972 0.005,-0.20361 0.0278,-0.34706 z"
         inkscape:connector-curvature="0" />
      <path
         id="path1053"
         d="m 95.564226,17.80494 v 0.37019 c 0.0972,-0.009 0.24525,-0.0139 0.31929,-0.0139 h 0.85145 v 1.7029 h -1.06431 c -0.10643,0 -0.22675,-0.009 -0.33318,-0.0231 v 0.38871 c 0.11106,-0.009 0.23137,-0.0139 0.33318,-0.0139 h 2.55898 c 0.074,0 0.21749,0.005 0.31004,0.0139 v -0.38871 c -0.0925,0.0139 -0.19898,0.0231 -0.31004,0.0231 h -1.11985 v -1.7029 h 0.90236 c 0.10643,0 0.22674,0.005 0.32855,0.0139 v -0.37019 c -0.0972,0.009 -0.21287,0.0185 -0.32855,0.0185 h -2.12863 c -0.074,0 -0.22212,-0.005 -0.31929,-0.0185 z"
         inkscape:connector-curvature="0" />
      <path
         id="path1055"
         d="m 103.86157,16.35192 -0.25451,0.10643 c 0.10644,0.14808 0.24063,0.37482 0.33781,0.55529 -0.0694,0.0139 -0.13883,0.0139 -0.19898,0.0139 h -2.31835 c -0.15271,0 -0.33781,-0.0139 -0.46275,-0.0324 v 0.41184 c 0.11569,-0.005 0.27765,-0.0139 0.45812,-0.0139 h 2.36925 c -0.0648,0.44424 -0.27765,1.08745 -0.60619,1.50855 -0.38871,0.49514 -0.90698,0.88847 -1.80471,1.11059 l 0.31467,0.34706 c 0.84682,-0.26377 1.39749,-0.69412 1.82321,-1.23553 0.36557,-0.47663 0.58769,-1.22165 0.68949,-1.70753 0.0185,-0.0925 0.037,-0.16659 0.0694,-0.23137 l -0.22674,-0.14345 0.17584,-0.0787 c -0.0925,-0.17584 -0.25913,-0.45349 -0.36557,-0.61082 z m 0.59232,-0.12032 -0.25451,0.10643 c 0.12494,0.16196 0.27764,0.42573 0.37945,0.61545 l 0.25451,-0.11105 c -0.0972,-0.17585 -0.26377,-0.45349 -0.37945,-0.61083 z"
         inkscape:connector-curvature="0" />
      <path
         style="color:#000000;font-style:normal;font-variant:normal;font-weight:normal;font-stretch:normal;font-size:medium;line-height:normal;font-family:sans-serif;font-variant-ligatures:normal;font-variant-position:normal;font-variant-caps:normal;font-variant-numeric:normal;font-variant-alternates:normal;font-feature-settings:normal;text-indent:0;text-align:start;text-decoration:none;text-decoration-line:none;text-decoration-style:solid;text-decoration-color:#000000;letter-spacing:normal;word-spacing:normal;text-transform:none;writing-mode:lr-tb;direction:ltr;text-orientation:mixed;dominant-baseline:auto;baseline-shift:baseline;text-anchor:start;white-space:normal;shape-padding:0;clip-rule:nonzero;display:inline;overflow:visible;visibility:visible;opacity:1;isolation:auto;mix-blend-mode:normal;color-interpolation:sRGB;color-interpolation-filters:linearRGB;solid-color:#000000;solid-opacity:1;vector-effect:none;fill:#000000;fill-opacity:1;fill-rule:nonzero;stroke:none;stroke-width:2.64583325;stroke-linecap:round;stroke-linejoin:round;stroke-miterlimit:4;stroke-dasharray:none;stroke-dashoffset:0;stroke-opacity:1;color-rendering:auto;image-rendering:auto;shape-rendering:auto;text-rendering:auto;enable-background:accumulate"
         d="m 5.3320312,32.556641 c -0.7422606,-0.0171 -1.3532726,0.579808 -1.3535156,1.322265 v 11.753906 c 0.00106,1.01777 1.102872,1.653265 1.984375,1.144532 l 10.1777344,-5.875 c 0.883629,-0.508933 0.883629,-1.784036 0,-2.292969 l -10.1777344,-5.875 C 5.7708391,32.623157 5.5538961,32.562037 5.3320312,32.556641 Z"
         id="play"
         inkscape:connector-curvature="0"
         sodipodi:nodetypes="cccccccc" />
      <path
         style="color:#000000;font-style:normal;font-variant:normal;font-weight:normal;font-stretch:normal;font-size:medium;line-height:normal;font-family:sans-serif;font-variant-ligatures:normal;font-variant-position:normal;font-variant-caps:normal;font-variant-numeric:normal;font-variant-alternates:normal;font-feature-settings:normal;text-indent:0;text-align:start;text-decoration:none;text-decoration-line:none;text-decoration-style:solid;text-decoration-color:#000000;letter-spacing:normal;word-spacing:normal;text-transform:none;writing-mode:lr-tb;direction:ltr;text-orientation:mixed;dominant-baseline:auto;baseline-shift:baseline;text-anchor:start;white-space:normal;shape-padding:0;clip-rule:nonzero;display:inline;overflow:visible;visibility:visible;opacity:1;isolation:auto;mix-blend-mode:normal;color-interpolation:sRGB;color-interpolation-filters:linearRGB;solid-color:#000000;solid-opacity:1;vector-effect:none;fill:#000000;fill-opacity:1;fill-rule:nonzero;stroke:none;stroke-width:10;stroke-linecap:round;stroke-linejoin:round;stroke-miterlimit:4;stroke-dasharray:none;stroke-dashoffset:0;stroke-opacity:1;color-rendering:auto;image-rendering:auto;shape-rendering:auto;text-rendering:auto;enable-background:accumulate"
         d="m 319.0625,458.80859 a 5.0004998,5.0004998 0 0 0 -4.99805,4.99805 v 44.42383 a 5.0004998,5.0004998 0 0 0 4.99805,4.99805 h 4.18555 a 5.0004998,5.0004998 0 0 0 4.99804,-4.99805 v -44.42383 a 5.0004998,5.0004998 0 0 0 -4.99804,-4.99805 z m 22.00586,0 a 5.0004998,5.0004998 0 0 0 -5.00586,4.99805 v 44.42383 a 5.0004998,5.0004998 0 0 0 5.00586,4.99805 h 4.17773 a 5.0004998,5.0004998 0 0 0 4.99805,-4.99805 v -44.42383 a 5.0004998,5.0004998 0 0 0 -4.99805,-4.99805 z"
         transform="matrix(0.26458333,0,0,0.26458333,-24.669481,-88.97743)"
         id="pause"
         inkscape:connector-curvature="0" />
      <path
         sodipodi:type="star"
         style="opacity:1;vector-effect:none;fill:#00ff00;fill-opacity:1;stroke:#00ff00;stroke-width:2.64583325;stroke-linecap:round;stroke-linejoin:round;stroke-miterlimit:4;stroke-dasharray:none;stroke-dashoffset:0;stroke-opacity:1"
         id="path1153-6-9"
         sodipodi:sides="7"
         sodipodi:cx="137.42883"
         sodipodi:cy="38.958466"
         sodipodi:r1="15.872566"
         sodipodi:r2="14.300686"
         sodipodi:arg1="-0.26179939"
         sodipodi:arg2="0.18699956"
         inkscape:flatsided="true"
         inkscape:rounded="0"
         inkscape:randomized="0"
         d="m 152.76055,34.850343 -2.56069,13.533573 -12.17753,6.436016 -12.62445,-5.507991 -3.5649,-13.30437 8.1791,-11.082286 13.76407,-0.515015 z"
         inkscape:transform-center-x="0.13206598"
         inkscape:transform-center-y="0.65663404" />
      <path
         style="color:#000000;font-style:normal;font-variant:normal;font-weight:normal;font-stretch:normal;font-size:medium;line-height:normal;font-family:sans-serif;font-variant-ligatures:normal;font-variant-position:normal;font-variant-caps:normal;font-variant-numeric:normal;font-variant-alternates:normal;font-feature-settings:normal;text-indent:0;text-align:start;text-decoration:none;text-decoration-line:none;text-decoration-style:solid;text-decoration-color:#000000;letter-spacing:normal;word-spacing:normal;text-transform:none;writing-mode:lr-tb;direction:ltr;text-orientation:mixed;dominant-baseline:auto;baseline-shift:baseline;text-anchor:start;white-space:normal;shape-padding:0;clip-rule:nonzero;display:inline;overflow:visible;visibility:visible;opacity:1;isolation:auto;mix-blend-mode:normal;color-interpolation:sRGB;color-interpolation-filters:linearRGB;solid-color:#000000;solid-opacity:1;vector-effect:none;fill:#000000;fill-opacity:1;fill-rule:nonzero;stroke:none;stroke-width:10;stroke-linecap:round;stroke-linejoin:round;stroke-miterlimit:4;stroke-dasharray:none;stroke-dashoffset:0;stroke-opacity:1;color-rendering:auto;image-rendering:auto;shape-rendering:auto;text-rendering:auto;enable-background:accumulate"
         d="m 582.53516,458.80859 c -2.82259,-0.09 -5.15798,2.17403 -5.15821,4.99805 v 44.42383 c 0.008,4.81158 6.14075,6.8358 9.01172,2.97461 l 16.46875,-22.21094 c 1.30821,-1.76753 1.30821,-4.18169 0,-5.94922 l -16.46875,-22.21289 c -0.90833,-1.22709 -2.32764,-1.97281 -3.85351,-2.02344 z m 28,0 c -2.82259,-0.09 -5.1599,2.17403 -5.16016,4.99805 v 44.42383 c 0.008,4.81157 6.14267,6.8358 9.01367,2.97461 l 16.46875,-22.21094 c 1.30825,-1.76753 1.30825,-4.18169 0,-5.94922 l -16.46875,-22.21289 c -0.90833,-1.22709 -2.32764,-1.97281 -3.85351,-2.02344 z m 27.21679,0 a 5.0004998,5.0004998 0 0 0 -4.99609,4.99805 v 44.42383 a 5.0004998,5.0004998 0 0 0 4.99609,4.99805 h 4.18555 a 5.0004998,5.0004998 0 0 0 4.99805,-4.99805 v -44.42383 a 5.0004998,5.0004998 0 0 0 -4.99805,-4.99805 z"
         transform="matrix(0.26458333,0,0,0.26458333,-24.669481,-88.97743)"
         id="skipFfw"
         inkscape:connector-curvature="0" />
      <path
         sodipodi:type="star"
         style="opacity:1;vector-effect:none;fill:#00ff00;fill-opacity:1;stroke:#00ff00;stroke-width:2.64583325;stroke-linecap:round;stroke-linejoin:round;stroke-miterlimit:4;stroke-dasharray:none;stroke-dashoffset:0;stroke-opacity:1"
         id="path1153-6"
         sodipodi:sides="7"
         sodipodi:cx="100.38717"
         sodipodi:cy="38.958466"
         sodipodi:r1="15.872565"
         sodipodi:r2="14.300686"
         sodipodi:arg1="-0.26179939"
         sodipodi:arg2="0.18699956"
         inkscape:flatsided="true"
         inkscape:rounded="0"
         inkscape:randomized="0"
         d="M 115.71889,34.850343 113.1582,48.383915 100.98066,54.819931 88.356213,49.31194 84.791318,36.007571 92.970417,24.925286 106.73448,24.410271 Z"
         inkscape:transform-center-x="0.13206598"
         inkscape:transform-center-y="0.65663404" />
      <path
         style="color:#000000;font-style:normal;font-variant:normal;font-weight:normal;font-stretch:normal;font-size:medium;line-height:normal;font-family:sans-serif;font-variant-ligatures:normal;font-variant-position:normal;font-variant-caps:normal;font-variant-numeric:normal;font-variant-alternates:normal;font-feature-settings:normal;text-indent:0;text-align:start;text-decoration:none;text-decoration-line:none;text-decoration-style:solid;text-decoration-color:#000000;letter-spacing:normal;word-spacing:normal;text-transform:none;writing-mode:lr-tb;direction:ltr;text-orientation:mixed;dominant-baseline:auto;baseline-shift:baseline;text-anchor:start;white-space:normal;shape-padding:0;clip-rule:nonzero;display:inline;overflow:visible;visibility:visible;opacity:1;isolation:auto;mix-blend-mode:normal;color-interpolation:sRGB;color-interpolation-filters:linearRGB;solid-color:#000000;solid-opacity:1;vector-effect:none;fill:#000000;fill-opacity:1;fill-rule:nonzero;stroke:none;stroke-width:10;stroke-linecap:round;stroke-linejoin:round;stroke-miterlimit:4;stroke-dasharray:none;stroke-dashoffset:0;stroke-opacity:1;color-rendering:auto;image-rendering:auto;shape-rendering:auto;text-rendering:auto;enable-background:accumulate"
         d="m 442.37305,458.80859 a 5.0004998,5.0004998 0 0 0 -4.9961,4.99805 v 44.42383 a 5.0004998,5.0004998 0 0 0 4.9961,4.99805 h 4.18554 a 5.0004998,5.0004998 0 0 0 4.99805,-4.99805 v -44.42383 a 5.0004998,5.0004998 0 0 0 -4.99805,-4.99805 z m 31.40429,0 c -1.52587,0.0506 -2.94518,0.79635 -3.85351,2.02344 l -16.47071,22.21289 c -1.30823,1.76753 -1.30823,4.18169 0,5.94922 l 16.47071,22.21094 c 2.87097,3.86119 9.00416,1.83696 9.01172,-2.97461 v -44.42383 c -2.3e-4,-2.82402 -2.33562,-5.08807 -5.15821,-4.99805 z m 27.99805,0 c -1.52587,0.0506 -2.94518,0.79635 -3.85351,2.02344 l -16.46876,22.21289 c -1.30824,1.76753 -1.30824,4.18169 0,5.94922 l 16.46876,22.21094 c 2.871,3.86119 9.00611,1.83697 9.01367,-2.97461 v -44.42383 c -2.3e-4,-2.82402 -2.33757,-5.08807 -5.16016,-4.99805 z"
         transform="matrix(0.26458333,0,0,0.26458333,-24.669481,-88.97743)"
         id="skipRwd"
         inkscape:connector-curvature="0" />
    </g>
  </g>
</svg>
