<?xml version="1.0" encoding="UTF-8" standalone="no"?>
<svg

   xmlns:svg="http://www.w3.org/2000/svg"
   xmlns="http://www.w3.org/2000/svg"

   viewBox="0 0 110.21759 24.253175"
   height="91.665543"
   width="416.57043">
  <g
     transform="translate(-51.090434,-134.31871)"
     id="layer1">
    <g
       id="g978">
      <g
         id="text833"
         style="font-style:normal;font-variant:normal;font-weight:normal;font-stretch:normal;font-size:19.43823814px;line-height:1.25;font-family:'Collective S BRK';-inkscape-font-specification:'Collective S BRK';font-variant-ligatures:normal;font-variant-caps:all-small-caps;font-variant-numeric:normal;font-feature-settings:normal;text-align:center;letter-spacing:0px;word-spacing:0px;writing-mode:lr-tb;text-anchor:middle;fill:#000000;fill-opacity:1;stroke:none;stroke-width:1.45786786" />
      <path
         id="path825"
         d="m 69.867186,153.58535 c -0.84149,-0.23758 -1.5619,-0.48815 -1.6009,-0.55683 -0.13389,-0.23576 1.17519,-6.64433 1.38113,-6.76129 0.1714,-0.0973 2.18286,1.83925 2.58728,2.49098 0.13901,0.22399 -0.53248,5.08585 -0.71688,5.19057 -0.0664,0.0377 -0.80914,-0.12586 -1.65063,-0.36343 z m -7.71412,3.6497 c -0.11943,-0.10151 -0.46471,-0.76441 -0.76727,-1.47311 l -0.55013,-1.28856 3.0905,-1.82263 c 1.69978,-1.00245 3.13215,-1.7493 3.18305,-1.65966 0.16047,0.28255 -0.35523,3.62001 -0.60662,3.9259 -0.46822,0.56974 -4.11797,2.51485 -4.34953,2.31806 z m -6.3649,-3.70632 c -1.25796,-0.50119 -2.32429,-0.97659 -2.36964,-1.05643 -0.0913,-0.16071 1.26536,-2.75645 1.5146,-2.89799 0.1698,-0.0964 5.98831,2.32745 6.40084,2.66648 0.2054,0.1688 -0.0672,0.38679 -1.50386,1.20269 l -1.75474,0.99652 z m 16.18215,-7.2164 c -0.50323,-0.2754 -4.16428,-5.03379 -3.96153,-5.14894 0.032,-0.0182 0.92215,-0.0526 1.97817,-0.0766 l 1.92003,-0.0436 1.47937,1.66712 c 1.05116,1.18456 1.45442,1.75759 1.39322,1.97969 -0.10705,0.38842 -2.51888,1.78126 -2.80926,1.62235 z m -16.76744,1.68804 -1.62802,-0.72226 -0.59788,-2.24529 c -0.32883,-1.23491 -0.58199,-2.30294 -0.56258,-2.3734 0.0194,-0.0705 0.75331,-0.23119 1.63087,-0.35719 1.75007,-0.25126 1.80708,-0.21501 2.16317,1.37546 0.12108,0.54084 0.41232,1.84403 0.64718,2.89598 0.23486,1.05195 0.32538,1.96581 0.20115,2.0308 -0.12423,0.065 -0.95848,-0.20686 -1.85389,-0.6041 z m 10.30409,-8.18967 c -1.67351,-0.0303 -3.09954,-0.15056 -3.16895,-0.26719 -0.0694,-0.11662 0.30683,-0.87455 0.83608,-1.68429 l 0.96229,-1.47226 2.06111,-0.0348 c 3.31853,-0.0561 3.09724,-0.18375 2.91885,1.68397 -0.084,0.87994 -0.24591,1.6516 -0.35972,1.71482 -0.11384,0.0632 -1.57615,0.0901 -3.24966,0.0598 z m -7.77928,3.31209 c -0.25432,-0.48092 -1.2349,-3.29514 -1.1932,-3.42443 0.15114,-0.46861 2.47205,-4.02087 2.65002,-4.05596 0.21024,-0.0415 2.33773,1.6074 2.54508,1.97252 0.079,0.13916 -3.46469,5.63381 -3.731,5.78505 -0.0526,0.0299 -0.17449,-0.0949 -0.2709,-0.27718 z"
         style="fill:#00ffff;stroke-width:0.21417539" />
      <path
         id="path927"
         style="font-style:normal;font-variant:normal;font-weight:normal;font-stretch:normal;font-size:medium;line-height:1.25;font-family:'Collective S BRK';-inkscape-font-specification:'Collective S BRK';font-variant-ligatures:normal;font-variant-caps:all-small-caps;font-variant-numeric:normal;font-feature-settings:normal;text-align:center;letter-spacing:0px;word-spacing:0px;writing-mode:lr-tb;text-anchor:middle;fill:#00ffff;fill-opacity:1;stroke:none;stroke-width:0.73285258"
         d="m 96.334263,146.53195 q 0,0.0489 -0.01967,0.0782 l -2.061759,2.06176 h -5.071341 q -0.0293,0 -0.07816,-0.0293 -0.03908,-0.0293 -0.03908,-0.0684 v -2.11062 q 0,-0.0197 0.03908,-0.0586 0.03908,-0.0391 0.05864,-0.0391 h 7.07447 q 0.04886,0 0.06842,0.0586 0.0293,0.0586 0.0293,0.1075 z m -4.670715,-2.81416 q -0.02931,0 -0.07817,-0.0391 -0.03908,-0.0391 -0.03908,-0.0684 v -2.11061 q 0,-0.0197 0.03908,-0.0586 0.03908,-0.0391 0.05864,-0.0391 h 2.628497 l 2.061759,2.06176 v 2.60895 q 0,0.0293 -0.04886,0.0782 -0.03908,0.0391 -0.06839,0.0391 h -2.07153 q -0.01967,0 -0.07816,-0.0293 -0.04886,-0.0391 -0.04886,-0.0684 v -2.37445 z m -0.537423,-4.79774 h 5.110423 q 0.03908,0 0.06842,0.0489 0.0293,0.0391 0.0293,0.0684 v 2.07153 q 0,0.0197 -0.04886,0.0782 -0.04886,0.0489 -0.06839,0.0489 h -4.836827 v 2.3549 q 0,0.0197 -0.05864,0.0684 -0.04886,0.0489 -0.06839,0.0489 h -2.07153 q -0.02931,0 -0.07816,-0.0293 -0.03908,-0.0293 -0.03908,-0.0684 v -2.62849 z" />
      <path
         id="path929"
         style="font-style:normal;font-variant:normal;font-weight:normal;font-stretch:normal;font-size:medium;line-height:1.25;font-family:'Collective S BRK';-inkscape-font-specification:'Collective S BRK';font-variant-ligatures:normal;font-variant-caps:all-small-caps;font-variant-numeric:normal;font-feature-settings:normal;text-align:center;letter-spacing:0px;word-spacing:0px;writing-mode:lr-tb;text-anchor:middle;fill:#00ffff;fill-opacity:1;stroke:none;stroke-width:0.73285258"
         d="m 96.585113,148.65233 q -0.0097,-0.01 -0.03908,-0.0293 -0.01967,-0.0293 -0.01967,-0.0489 v -2.11062 q 0,-0.0197 0.03908,-0.0586 0.03908,-0.0391 0.05864,-0.0391 h 7.074467 q 0.0391,0 0.0684,0.0489 0.0293,0.0391 0.0293,0.0684 v 2.07153 q 0,0.0293 -0.0489,0.0782 -0.0391,0.0391 -0.0684,0.0391 h -7.03526 q -0.03908,0 -0.05864,-0.0197 z m 4.709797,-5.20813 q 0.0197,0.0197 0.0197,0.0586 0,0.0293 0,0.0489 0,0.0391 -0.0391,0.1075 -0.0293,0.0586 -0.0782,0.0586 H 98.8423 v 2.3549 q 0,0.0197 -0.05864,0.0684 -0.04886,0.0489 -0.06842,0.0489 h -2.071506 q -0.02931,0 -0.07816,-0.0293 -0.03908,-0.0293 -0.03908,-0.0684 v -4.59255 q 0,-0.0197 0.03908,-0.0586 0.03908,-0.0391 0.05864,-0.0391 h 2.618725 z m -4.768426,-2.38422 q 0,-0.0197 0,-0.0489 0,-0.0293 0.01967,-0.0489 l 2.042214,-2.04221 h 5.110422 q 0.0391,0 0.0684,0.0489 0.0293,0.0391 0.0293,0.0684 v 2.07153 q 0,0.0293 -0.0489,0.0782 -0.0391,0.0391 -0.0684,0.0391 h -7.035494 q -0.06842,0 -0.09772,-0.0489 -0.01967,-0.0586 -0.01967,-0.11725 z" />
      <path
         id="path931"
         style="font-style:normal;font-variant:normal;font-weight:normal;font-stretch:normal;font-size:medium;line-height:1.25;font-family:'Collective S BRK';-inkscape-font-specification:'Collective S BRK';font-variant-ligatures:normal;font-variant-caps:all-small-caps;font-variant-numeric:normal;font-feature-settings:normal;text-align:center;letter-spacing:0px;word-spacing:0px;writing-mode:lr-tb;text-anchor:middle;fill:#00ffff;fill-opacity:1;stroke:none;stroke-width:0.73285258"
         d="m 106.52916,148.65233 q -0.01,-0.01 -0.0391,-0.0293 -0.0197,-0.0293 -0.0197,-0.0489 v -7.07447 q 0,-0.0197 0.0391,-0.0586 0.0391,-0.0391 0.0586,-0.0391 h 2.11062 q 0.0391,0 0.0684,0.0489 0.0293,0.0391 0.0293,0.0684 v 7.03538 q 0,0.0293 -0.0489,0.0782 -0.0391,0.0391 -0.0684,0.0391 h -2.0714 q -0.0391,0 -0.0586,-0.0197 z m 4.7098,-7.69006 q 0.0197,0.0197 0.0197,0.0586 0,0.0293 0,0.0489 0,0.0489 -0.0391,0.10749 -0.0293,0.0489 -0.0782,0.0489 h -7.03539 q -0.0293,0 -0.0782,-0.0293 -0.0391,-0.0293 -0.0391,-0.0684 v -2.11061 q 0,-0.0197 0.0391,-0.0586 0.0391,-0.0391 0.0586,-0.0391 h 5.11042 z" />
      <path
         id="path933"
         style="font-style:normal;font-variant:normal;font-weight:normal;font-stretch:normal;font-size:medium;line-height:1.25;font-family:'Collective S BRK';-inkscape-font-specification:'Collective S BRK';font-variant-ligatures:normal;font-variant-caps:all-small-caps;font-variant-numeric:normal;font-feature-settings:normal;text-align:center;letter-spacing:0px;word-spacing:0px;writing-mode:lr-tb;text-anchor:middle;fill:#00ffff;fill-opacity:1;stroke:none;stroke-width:0.73285258"
         d="m 113.99128,148.65233 q -0.01,-0.01 -0.0391,-0.0293 -0.0197,-0.0293 -0.0197,-0.0489 v -7.07447 q 0,-0.0197 0.0391,-0.0586 0.0391,-0.0391 0.0586,-0.0391 h 2.11062 q 0.0391,0 0.0684,0.0489 0.0293,0.0391 0.0293,0.0684 v 7.03538 q 0,0.0293 -0.0489,0.0782 -0.0391,0.0391 -0.0684,0.0391 h -2.07153 q -0.0391,0 -0.0586,-0.0197 z m 4.7098,-7.69006 q 0.0197,0.0197 0.0197,0.0586 0,0.0293 0,0.0489 0,0.0489 -0.0391,0.10749 -0.0293,0.0489 -0.0782,0.0489 h -7.03538 q -0.0293,0 -0.0782,-0.0293 -0.0391,-0.0293 -0.0391,-0.0684 v -2.11061 q 0,-0.0197 0.0391,-0.0586 0.0391,-0.0391 0.0586,-0.0391 h 5.11043 z" />
      <path
         id="path935"
         style="font-style:normal;font-variant:normal;font-weight:normal;font-stretch:normal;font-size:medium;line-height:1.25;font-family:'Collective S BRK';-inkscape-font-specification:'Collective S BRK';font-variant-ligatures:normal;font-variant-caps:all-small-caps;font-variant-numeric:normal;font-feature-settings:normal;text-align:center;letter-spacing:0px;word-spacing:0px;writing-mode:lr-tb;text-anchor:middle;fill:#00ffff;fill-opacity:1;stroke:none;stroke-width:0.73285258"
         d="m 126.08502,146.35606 q 0.0489,0 0.0684,0.0684 0.0293,0.0684 0.0293,0.1075 0,0.0489 -0.0197,0.0782 l -2.06176,2.06176 h -5.07134 q -0.0293,0 -0.0782,-0.0293 -0.0391,-0.0293 -0.0391,-0.0684 v -7.07447 q 0,-0.0197 0.0391,-0.0586 0.0391,-0.0391 0.0586,-0.0391 h 2.11062 q 0.0293,0 0.0684,0.0489 0.0391,0.0391 0.0391,0.0684 v 4.83683 z m -7.05492,-5.12019 q -0.0684,0 -0.0977,-0.0586 -0.0197,-0.0684 -0.0197,-0.11725 0,-0.0197 0,-0.0489 0,-0.0293 0.0197,-0.0489 l 2.04221,-2.04221 h 5.11043 q 0.0391,0 0.0684,0.0489 0.0293,0.0391 0.0293,0.0684 v 7.03539 q 0,0.0293 -0.0489,0.0782 -0.0391,0.0391 -0.0684,0.0391 h -2.07153 q -0.0197,0 -0.0782,-0.0293 -0.0489,-0.0391 -0.0489,-0.0684 v -4.85637 z" />
      <path
         id="path925"
         style="font-style:normal;font-variant:normal;font-weight:normal;font-stretch:normal;font-size:medium;line-height:1.25;font-family:'Collective S BRK';-inkscape-font-specification:'Collective S BRK';font-variant-ligatures:normal;font-variant-caps:all-small-caps;font-variant-numeric:normal;font-feature-settings:normal;text-align:center;letter-spacing:0px;word-spacing:0px;writing-mode:lr-tb;text-anchor:middle;fill:#00ffff;fill-opacity:1;stroke:#00ffff;stroke-width:0.45561787;stroke-linejoin:round;stroke-miterlimit:4;stroke-dasharray:none;stroke-opacity:1"
         d="m 78.711877,137.56237 c -0.534594,0.85048 -1.615926,1.89537 -2.551462,2.52716 0.157944,0.15794 0.376644,0.47384 0.498143,0.65609 1.020586,-0.72899 2.162668,-1.85892 2.879507,-2.87951 z m 0.291607,2.45426 c -0.716839,1.27573 -1.883218,2.53931 -2.988852,3.35335 0.157944,0.19438 0.425243,0.61964 0.510293,0.80189 0.461691,-0.3645 0.923386,-0.81404 1.372929,-1.28789 v 5.78331 h 0.850485 v -6.77959 c 0.388795,-0.52244 0.765438,-1.05703 1.057035,-1.59162 z m 5.017871,5.04217 h 2.794456 v -0.80189 h -2.794456 v -1.81032 h 3.30475 v -0.81404 h -3.389797 v -1.68882 h 2.818754 v -0.78974 h -2.818754 v -1.61592 h -0.862636 v 1.61592 h -2.745858 v 0.78974 h 2.745858 v 1.68882 h -3.377646 v 0.81404 h 3.462693 v 4.88423 c -0.814037,-0.31589 -1.457976,-0.94769 -1.871071,-2.11407 0.09719,-0.54674 0.182258,-1.11778 0.230854,-1.72528 l -0.886937,-0.0729 c -0.145786,2.04117 -0.571039,3.6814 -1.640221,4.70198 0.194382,0.13366 0.558889,0.4131 0.692538,0.55889 0.59534,-0.60749 1.008432,-1.37293 1.312179,-2.28416 0.923386,1.70097 2.369211,2.08977 4.288881,2.08977 h 1.931821 c 0.0486,-0.23086 0.157944,-0.61964 0.291607,-0.83834 -0.413095,0.012 -1.871071,0.012 -2.162668,0.012 -0.461691,0 -0.911234,-0.0245 -1.32433,-0.0972 z" />
      <path
         id="path937"
         style="font-style:normal;font-variant:normal;font-weight:normal;font-stretch:normal;font-size:medium;line-height:1.25;font-family:'Collective S BRK';-inkscape-font-specification:'Collective S BRK';font-variant-ligatures:normal;font-variant-caps:all-small-caps;font-variant-numeric:normal;font-feature-settings:normal;text-align:center;letter-spacing:0px;word-spacing:0px;writing-mode:lr-tb;text-anchor:middle;fill:#00ffff;fill-opacity:1;stroke:#00ffff;stroke-width:0.45508116;stroke-linejoin:round;stroke-miterlimit:4;stroke-dasharray:none;stroke-opacity:1"
         d="m 135.00117,145.40073 c 0.97084,-1.00725 1.91741,-2.52418 2.47565,-3.53143 0.0849,-0.15776 0.21843,-0.36407 0.30337,-0.48542 l -0.716,-0.55823 c -0.14561,0.0849 -0.3762,0.15776 -0.64318,0.21844 -0.50969,0.10922 -2.6334,0.54609 -4.69644,0.94656 v -1.89313 c 0,-0.35193 0.0244,-0.76454 0.085,-1.11647 h -1.15287 c 0.0607,0.35193 0.0849,0.7524 0.0849,1.11647 v 2.07517 c -1.28636,0.24272 -2.43923,0.44901 -2.98533,0.52182 l 0.19415,1.01939 c 0.48542,-0.10922 1.56549,-0.33981 2.79117,-0.58251 v 3.66492 c 0,1.20141 0.41261,1.78392 2.66981,1.78392 1.51693,0 2.73048,-0.0971 3.81054,-0.24272 l 0.0485,-1.04366 c -1.21355,0.23058 -2.37856,0.35193 -3.78627,0.35193 -1.45626,0 -1.75965,-0.26697 -1.75965,-1.10433 v -3.60424 c 2.14798,-0.43688 4.38091,-0.88589 4.58722,-0.93443 -0.36407,0.72813 -1.24996,2.06303 -2.16012,2.88824 z" />
      <path
         id="path939"
         style="font-style:normal;font-variant:normal;font-weight:normal;font-stretch:normal;font-size:medium;line-height:1.25;font-family:'Collective S BRK';-inkscape-font-specification:'Collective S BRK';font-variant-ligatures:normal;font-variant-caps:all-small-caps;font-variant-numeric:normal;font-feature-settings:normal;text-align:center;letter-spacing:0px;word-spacing:0px;writing-mode:lr-tb;text-anchor:middle;fill:#00ffff;fill-opacity:1;stroke:#00ffff;stroke-width:0.45508116;stroke-linejoin:round;stroke-miterlimit:4;stroke-dasharray:none;stroke-opacity:1"
         d="m 145.02509,141.37174 -0.88589,0.30338 c 0.25483,0.54609 0.81308,2.0873 0.94657,2.6334 l 0.89802,-0.31551 c -0.15775,-0.53397 -0.7524,-2.13585 -0.9587,-2.62127 z m 3.3494,0.35193 c -0.18205,1.55335 -0.81308,3.09456 -1.6747,4.15034 -0.99511,1.24996 -2.53632,2.17226 -3.94404,2.57273 l 0.80094,0.82521 c 1.35918,-0.52182 2.83971,-1.46839 3.95618,-2.88825 0.87375,-1.09219 1.39558,-2.39069 1.72324,-3.72559 0.0485,-0.15776 0.0971,-0.35193 0.18204,-0.60678 z m -6.16484,0.25484 -0.89802,0.35192 c 0.24269,0.42475 0.89802,2.09945 1.08006,2.73049 l 0.9223,-0.3398 c -0.23059,-0.63105 -0.86162,-2.2208 -1.10434,-2.74262 z" />
      <path
         id="path941"
         style="font-style:normal;font-variant:normal;font-weight:normal;font-stretch:normal;font-size:medium;line-height:1.25;font-family:'Collective S BRK';-inkscape-font-specification:'Collective S BRK';font-variant-ligatures:normal;font-variant-caps:all-small-caps;font-variant-numeric:normal;font-feature-settings:normal;text-align:center;letter-spacing:0px;word-spacing:0px;writing-mode:lr-tb;text-anchor:middle;fill:#00ffff;fill-opacity:1;stroke:#00ffff;stroke-width:0.45508116;stroke-linejoin:round;stroke-miterlimit:4;stroke-dasharray:none;stroke-opacity:1"
         d="m 159.75758,144.21145 c -1.28636,-0.64318 -3.57997,-1.51694 -5.18185,-2.00236 v -1.97808 c 0,-0.36407 0.0485,-0.88589 0.085,-1.26209 h -1.1893 c 0.0728,0.3762 0.0971,0.92229 0.0971,1.26209 v 7.06286 c 0,0.44901 -0.0244,1.04365 -0.0728,1.43199 h 1.16501 c -0.0485,-0.40048 -0.0728,-1.04366 -0.0728,-1.43199 l -0.012,-4.00472 c 1.34705,0.42475 3.44648,1.23782 4.76925,1.95382 z" />
      <g
         id="text984"
         style="font-style:normal;font-variant:normal;font-weight:normal;font-stretch:normal;font-size:4.62744999px;line-height:1.25;font-family:'Futura PT';-inkscape-font-specification:'Futura PT, Normal';font-variant-ligatures:normal;font-variant-caps:all-small-caps;font-variant-numeric:normal;font-feature-settings:normal;text-align:end;letter-spacing:0px;word-spacing:0px;writing-mode:lr-tb;text-anchor:end;fill:#00ffff;fill-opacity:1;stroke:none;stroke-width:0.24789906"
         aria-label="3019 cybersoul ダークウェブ">
        <path
           id="path1019"
           style="letter-spacing:1.11554587px;fill:#00ffff;fill-opacity:1;stroke-width:0.24789906"
           d="m 77.742971,152.19306 c 0.0093,-0.12957 0.06016,-0.24526 0.120314,-0.32392 0.120313,-0.15271 0.273019,-0.17585 0.39796,-0.17585 0.379451,0 0.52753,0.25451 0.52753,0.52753 0,0.27765 -0.161961,0.40722 -0.259138,0.45812 -0.09718,0.0509 -0.231372,0.074 -0.351686,0.0648 v 0.30542 c 0.120314,-0.005 0.25451,0.0185 0.351686,0.0648 0.236,0.10643 0.305412,0.34243 0.305412,0.51827 0,0.34244 -0.263765,0.62471 -0.606196,0.62471 -0.194353,0 -0.374823,-0.0833 -0.476627,-0.23137 -0.06016,-0.0833 -0.09718,-0.19898 -0.111059,-0.31004 h -0.342431 c 0.0046,0.11106 0.02314,0.21286 0.06941,0.32392 0.166589,0.39796 0.541412,0.53216 0.860706,0.53216 0.527529,0 0.948627,-0.35169 0.948627,-0.93012 0,-0.53216 -0.337804,-0.70337 -0.444235,-0.74502 0.314667,-0.15733 0.397961,-0.46275 0.397961,-0.68486 0,-0.42573 -0.286902,-0.83294 -0.869961,-0.83294 -0.185098,0 -0.513647,0.0416 -0.717255,0.36094 -0.07867,0.12494 -0.134196,0.28227 -0.14345,0.45349 z" />
        <path
           id="path1021"
           style="letter-spacing:1.11554587px;fill:#00ffff;fill-opacity:1;stroke-width:0.24789906"
           d="m 82.062375,154.57157 c 0.245255,0 0.555294,-0.12032 0.791294,-0.46275 0.203608,-0.29616 0.310039,-0.69412 0.310039,-1.13372 0,-0.43961 -0.106431,-0.83757 -0.310039,-1.13373 -0.236,-0.34243 -0.546039,-0.46274 -0.791294,-0.46274 -0.245255,0 -0.555294,0.12031 -0.791294,0.46274 -0.203608,0.29616 -0.310039,0.69412 -0.310039,1.13373 0,0.4396 0.106431,0.83756 0.310039,1.13372 0.236,0.34243 0.546039,0.46275 0.791294,0.46275 z m 0,-2.87828 c 0.157333,0 0.370196,0.0833 0.532157,0.34243 0.166588,0.26377 0.226745,0.61545 0.226745,0.93938 0,0.32392 -0.06016,0.6756 -0.226745,0.93937 -0.161961,0.25914 -0.374824,0.34243 -0.532157,0.34243 -0.157333,0 -0.370196,-0.0833 -0.532157,-0.34243 -0.166588,-0.26377 -0.226745,-0.61545 -0.226745,-0.93937 0,-0.32393 0.06016,-0.67561 0.226745,-0.93938 0.161961,-0.25913 0.374824,-0.34243 0.532157,-0.34243 z" />
        <path
           id="path1023"
           style="letter-spacing:1.11554587px;fill:#00ffff;fill-opacity:1;stroke-width:0.24789906"
           d="m 85.263744,154.51604 h 0.342431 v -3.08651 H 84.92594 l -0.18047,0.32392 h 0.518274 z" />
        <path
           id="path1025"
           style="letter-spacing:1.11554587px;fill:#00ffff;fill-opacity:1;stroke-width:0.24789906"
           d="m 88.336846,154.59008 1.050431,-1.45302 c 0.231372,-0.3193 0.254509,-0.59232 0.254509,-0.708 0,-0.48589 -0.342431,-1.05043 -1.068941,-1.05043 -0.61545,0 -1.059686,0.44423 -1.059686,1.05968 0,0.57381 0.407216,1.01804 0.99953,1.01804 0.09718,0 0.185098,-0.0139 0.273019,-0.0416 l -0.708,0.98565 z m 0.240627,-2.89679 c 0.430353,0 0.721882,0.32392 0.721882,0.73577 0,0.40259 -0.296157,0.71262 -0.717255,0.71262 -0.421098,0 -0.726509,-0.30078 -0.726509,-0.71262 0,-0.41647 0.296157,-0.73577 0.721882,-0.73577 z" />
        <path
           id="path1027"
           style="letter-spacing:1.11554587px;fill:#00ffff;fill-opacity:1;stroke-width:0.24789906"
           d="m 95.018531,152.73447 c -0.09255,-0.0648 -0.291529,-0.1851 -0.596941,-0.1851 -0.592313,0 -1.027293,0.43035 -1.027293,1.01804 0,0.57843 0.430352,1.00416 1.027293,1.00416 0.180471,0 0.402589,-0.0463 0.610824,-0.19898 v -0.39796 c -0.175843,0.21286 -0.421098,0.30078 -0.620078,0.30078 -0.342432,0 -0.675608,-0.24526 -0.675608,-0.71263 0,-0.46737 0.323921,-0.71725 0.680235,-0.71725 0.171216,0 0.425725,0.0648 0.601568,0.2869 z" />
        <path
           id="path1029"
           style="letter-spacing:1.11554587px;fill:#00ffff;fill-opacity:1;stroke-width:0.24789906"
           d="m 96.650039,155.58035 h 0.370196 l 1.411373,-2.9847 H 98.061412 L 97.436706,153.97 96.756471,152.59565 H 96.37702 l 0.883843,1.73992 z" />
        <path
           id="path1031"
           style="letter-spacing:1.11554587px;fill:#00ffff;fill-opacity:1;stroke-width:0.24789906"
           d="m 100.23635,154.24764 c 0.14345,0.1851 0.36094,0.32393 0.67098,0.32393 0.58306,0 0.92087,-0.47663 0.92087,-1.00416 0,-0.51827 -0.33318,-1.01804 -0.93475,-1.01804 -0.13882,0 -0.43035,0.0324 -0.6571,0.31467 v -1.72141 h -0.333173 v 3.37341 h 0.333173 z m 0.62471,0.0278 c -0.39333,0 -0.64322,-0.31929 -0.64322,-0.71263 0,-0.46274 0.32855,-0.71725 0.63859,-0.71725 0.31004,0 0.62934,0.24988 0.62934,0.72188 0,0.38408 -0.236,0.708 -0.62471,0.708 z" />
        <path
           id="path1033"
           style="letter-spacing:1.11554587px;fill:#00ffff;fill-opacity:1;stroke-width:0.24789906"
           d="m 104.8752,153.87282 c -0.0417,0.0926 -0.11106,0.18973 -0.19898,0.26377 -0.11106,0.0925 -0.236,0.13882 -0.39334,0.13882 -0.33317,0 -0.60619,-0.25451 -0.61082,-0.65247 h 1.49467 c 0.009,-0.25451 -0.0602,-0.55067 -0.18048,-0.72188 -0.11568,-0.16659 -0.35168,-0.35169 -0.7265,-0.35169 -0.57844,0 -0.93012,0.44424 -0.93012,1.01804 0,0.71263 0.48588,1.00416 0.94863,1.00416 0.24525,0 0.46274,-0.0787 0.63858,-0.236 0.0972,-0.0879 0.18047,-0.20361 0.236,-0.31004 z m -1.18,-0.52753 c 0.0509,-0.2869 0.28227,-0.49976 0.56455,-0.49976 0.28227,0 0.50901,0.19898 0.56454,0.49976 z" />
        <path
           id="path1035"
           style="letter-spacing:1.11554587px;fill:#00ffff;fill-opacity:1;stroke-width:0.24789906"
           d="m 106.78883,154.51604 h 0.33318 v -1.01341 c 0,-0.31467 0.0555,-0.44424 0.11106,-0.51828 0.0509,-0.0648 0.13419,-0.12031 0.26839,-0.12031 0.0509,0 0.12031,0.0139 0.19435,0.0648 l 0.15734,-0.30078 c -0.0833,-0.0417 -0.19436,-0.0787 -0.29616,-0.0787 -0.25914,0 -0.40259,0.20361 -0.43498,0.25451 v -0.20823 h -0.33318 z" />
        <path
           id="path1037"
           style="letter-spacing:1.11554587px;fill:#00ffff;fill-opacity:1;stroke-width:0.24789906"
           d="m 110.28824,152.89643 c -0.15271,-0.32855 -0.42573,-0.34706 -0.52753,-0.34706 -0.32392,0 -0.55992,0.19898 -0.55992,0.53678 0,0.0972 0.0139,0.18973 0.0879,0.28228 0.0879,0.10643 0.236,0.18047 0.46737,0.28227 0.18047,0.0787 0.31004,0.13883 0.31004,0.3193 0,0.14345 -0.0972,0.30541 -0.31467,0.30541 -0.24062,0 -0.35168,-0.21286 -0.3887,-0.31467 l -0.2869,0.12032 c 0.16196,0.48125 0.59231,0.49051 0.67098,0.49051 0.37019,0 0.66172,-0.22675 0.66172,-0.62934 0,-0.10643 -0.0185,-0.20823 -0.1018,-0.31004 -0.074,-0.0925 -0.20361,-0.18047 -0.48126,-0.29615 -0.21749,-0.0925 -0.31004,-0.1342 -0.31004,-0.27302 0,-0.14808 0.11106,-0.21749 0.23138,-0.21749 0.12494,0 0.22211,0.0833 0.26839,0.19435 z" />
        <path
           id="path1039"
           style="letter-spacing:1.11554587px;fill:#00ffff;fill-opacity:1;stroke-width:0.24789906"
           d="m 112.86403,154.57157 c 0.58306,0 1.01804,-0.42573 1.01804,-1.00879 0,-0.58306 -0.43035,-1.01341 -1.01804,-1.01341 -0.58768,0 -1.01804,0.43035 -1.01804,1.01341 0,0.58306 0.43499,1.00879 1.01804,1.00879 z m 0,-1.72604 c 0.35169,0 0.67561,0.24525 0.67561,0.71725 0,0.46737 -0.32855,0.71263 -0.67561,0.71263 -0.34243,0 -0.6756,-0.24063 -0.6756,-0.71263 0,-0.46737 0.32392,-0.71725 0.6756,-0.71725 z" />
        <path
           id="path1041"
           style="letter-spacing:1.11554587px;fill:#00ffff;fill-opacity:1;stroke-width:0.24789906"
           d="m 115.83721,152.59565 h -0.33317 v 1.15686 c 0,0.236 0.0231,0.41184 0.17584,0.57843 0.17121,0.18047 0.39796,0.24063 0.58769,0.24063 0.18972,0 0.41647,-0.0602 0.58768,-0.24063 0.15271,-0.16659 0.17584,-0.34243 0.17584,-0.57843 v -1.15686 h -0.33317 v 1.11984 c 0,0.13419 0,0.29153 -0.0926,0.41184 -0.0509,0.0648 -0.15271,0.14808 -0.3378,0.14808 -0.1851,0 -0.28691,-0.0833 -0.33781,-0.14808 -0.0926,-0.12031 -0.0926,-0.27765 -0.0926,-0.41184 z" />
        <path
           id="path1043"
           style="letter-spacing:1.11554587px;fill:#00ffff;fill-opacity:1;stroke-width:0.24789906"
           d="m 118.77966,151.14263 v 3.37341 h 0.33318 v -3.37341 z" />
        <path
           id="path1045"
           style="letter-spacing:1.11554587px;fill:#00ffff;fill-opacity:1;stroke-width:0.24789906"
           d="m 126.27867,150.78631 -0.24526,0.10643 c 0.12495,0.17122 0.27765,0.44424 0.3702,0.62934 l -0.0787,-0.0463 c -0.074,0.0278 -0.18047,0.0417 -0.30541,0.0417 h -1.24941 c 0.0324,-0.0555 0.0648,-0.11106 0.0925,-0.16196 0.0463,-0.0879 0.12957,-0.24526 0.20824,-0.36557 l -0.4211,-0.1342 c -0.0278,0.12032 -0.10181,0.28228 -0.14808,0.36557 -0.21286,0.4211 -0.68949,1.11985 -1.48541,1.61498 l 0.31004,0.236 c 0.51827,-0.35631 0.93011,-0.8098 1.22627,-1.22164 h 1.56408 c -0.0926,0.37945 -0.32855,0.87458 -0.62933,1.2818 -0.32393,-0.22675 -0.67098,-0.45349 -0.9764,-0.62933 l -0.24988,0.25913 c 0.29616,0.1851 0.65247,0.42573 0.98102,0.66636 -0.41184,0.44886 -1.00878,0.87458 -1.79082,1.11058 l 0.33317,0.29153 c 0.78204,-0.29615 1.35122,-0.71725 1.76306,-1.17537 0.19436,0.14808 0.36557,0.29153 0.50439,0.41647 l 0.27302,-0.31929 c -0.14807,-0.12032 -0.32854,-0.25914 -0.52753,-0.40259 0.34706,-0.472 0.60157,-1.01804 0.72651,-1.44376 0.0231,-0.074 0.0694,-0.18048 0.10644,-0.24526 l -0.21749,-0.12957 0.24525,-0.11106 c -0.0972,-0.18972 -0.26376,-0.46737 -0.37945,-0.63396 z m 0.50902,-0.1851 -0.24526,0.10181 c 0.12957,0.17584 0.28228,0.43498 0.38408,0.63859 l 0.24988,-0.11106 c -0.0879,-0.17122 -0.26839,-0.46275 -0.3887,-0.62934 z" />
        <path
           id="path1047"
           style="letter-spacing:1.11554587px;fill:#00ffff;fill-opacity:1;stroke-width:0.24789906"
           d="m 128.95367,152.51235 v 0.45349 c 0.14345,-0.0139 0.3887,-0.0231 0.64321,-0.0231 h 2.54047 c 0.20824,0 0.40259,0.0185 0.49514,0.0231 v -0.45349 c -0.1018,0.009 -0.26839,0.0231 -0.49977,0.0231 h -2.53584 c -0.25914,0 -0.50439,-0.0139 -0.64321,-0.0231 z" />
        <path
           id="path1049"
           style="letter-spacing:1.11554587px;fill:#00ffff;fill-opacity:1;stroke-width:0.24789906"
           d="m 136.7096,150.92051 -0.43035,-0.13883 c -0.0278,0.12032 -0.0972,0.28691 -0.14345,0.36557 -0.19898,0.41647 -0.6571,1.08745 -1.45302,1.56408 l 0.31929,0.24063 c 0.5044,-0.3378 0.8931,-0.74965 1.17538,-1.13835 h 1.56407 c -0.0972,0.42109 -0.37945,1.01804 -0.74039,1.44376 -0.4211,0.49051 -0.99953,0.91161 -1.84635,1.16149 l 0.33318,0.30078 c 0.86996,-0.31929 1.42062,-0.74501 1.84172,-1.25866 0.41184,-0.49977 0.69875,-1.12447 0.82369,-1.59184 0.0231,-0.074 0.0694,-0.18047 0.10643,-0.24526 l -0.31004,-0.18972 c -0.074,0.0324 -0.17584,0.0463 -0.30078,0.0463 h -1.25404 c 0.0416,-0.0648 0.0787,-0.12957 0.11106,-0.19435 0.0416,-0.0879 0.12494,-0.24526 0.2036,-0.36557 z" />
        <path
           id="path1051"
           style="letter-spacing:1.11554587px;fill:#00ffff;fill-opacity:1;stroke-width:0.24789906"
           d="m 142.47111,150.80945 h -0.44424 c 0.0185,0.14345 0.0231,0.24988 0.0231,0.34706 v 0.43035 h -1.02266 c -0.16197,0 -0.29616,-0.005 -0.43036,-0.0185 0.0139,0.10181 0.0139,0.25914 0.0139,0.35631 v 0.81444 c 0,0.0879 -0.005,0.21286 -0.0139,0.29615 h 0.40259 c -0.0139,-0.074 -0.0185,-0.19435 -0.0185,-0.27764 v -0.82832 h 2.58675 c -0.0417,0.39796 -0.18973,0.95788 -0.43961,1.35122 -0.28228,0.43498 -0.7913,0.78204 -1.25404,0.93012 -0.14808,0.0555 -0.32392,0.10643 -0.48126,0.12956 l 0.30079,0.34706 c 0.84682,-0.23137 1.48541,-0.70337 1.83247,-1.30957 0.25914,-0.44423 0.39333,-1.02266 0.45349,-1.39286 0.0185,-0.0879 0.0463,-0.20823 0.0694,-0.27765 l -0.24988,-0.15733 c -0.0602,0.0231 -0.14808,0.037 -0.3193,0.037 h -1.03655 v -0.43035 c 0,-0.0972 0.005,-0.20361 0.0278,-0.34706 z" />
        <path
           id="path1053"
           style="letter-spacing:1.11554587px;fill:#00ffff;fill-opacity:1;stroke-width:0.24789906"
           d="m 146.65466,152.12365 v 0.37019 c 0.0972,-0.009 0.24525,-0.0139 0.31929,-0.0139 h 0.85145 v 1.7029 h -1.06431 c -0.10643,0 -0.22675,-0.009 -0.33318,-0.0231 v 0.38871 c 0.11106,-0.009 0.23137,-0.0139 0.33318,-0.0139 h 2.55898 c 0.074,0 0.21749,0.005 0.31004,0.0139 v -0.38871 c -0.0925,0.0139 -0.19898,0.0231 -0.31004,0.0231 h -1.11985 v -1.7029 h 0.90236 c 0.10643,0 0.22674,0.005 0.32855,0.0139 v -0.37019 c -0.0972,0.009 -0.21287,0.0185 -0.32855,0.0185 h -2.12863 c -0.074,0 -0.22212,-0.005 -0.31929,-0.0185 z" />
        <path
           id="path1055"
           style="letter-spacing:1.11554587px;fill:#00ffff;fill-opacity:1;stroke-width:0.24789906"
           d="m 154.952,150.67063 -0.25451,0.10643 c 0.10644,0.14808 0.24063,0.37482 0.33781,0.55529 -0.0694,0.0139 -0.13883,0.0139 -0.19898,0.0139 h -2.31835 c -0.15271,0 -0.33781,-0.0139 -0.46275,-0.0324 v 0.41184 c 0.11569,-0.005 0.27765,-0.0139 0.45812,-0.0139 h 2.36925 c -0.0648,0.44424 -0.27765,1.08745 -0.60619,1.50855 -0.38871,0.49514 -0.90698,0.88847 -1.80471,1.11059 l 0.31467,0.34706 c 0.84682,-0.26377 1.39749,-0.69412 1.82321,-1.23553 0.36557,-0.47663 0.58769,-1.22165 0.68949,-1.70753 0.0185,-0.0925 0.037,-0.16659 0.0694,-0.23137 l -0.22674,-0.14345 0.17584,-0.0787 c -0.0925,-0.17584 -0.25913,-0.45349 -0.36557,-0.61082 z m 0.59232,-0.12032 -0.25451,0.10643 c 0.12494,0.16196 0.27764,0.42573 0.37945,0.61545 l 0.25451,-0.11105 c -0.0972,-0.17585 -0.26377,-0.45349 -0.37945,-0.61083 z" />
      </g>
    </g>
  </g>
</svg>
