<?xml version="1.0" encoding="UTF-8" standalone="no"?>
<svg
   xmlns:dc="http://purl.org/dc/elements/1.1/"
   xmlns:cc="http://creativecommons.org/ns#"
   xmlns:rdf="http://www.w3.org/1999/02/22-rdf-syntax-ns#"
   xmlns:svg="http://www.w3.org/2000/svg"
   xmlns="http://www.w3.org/2000/svg"
   xmlns:sodipodi="http://sodipodi.sourceforge.net/DTD/sodipodi-0.dtd"
   xmlns:inkscape="http://www.inkscape.org/namespaces/inkscape"
   viewBox="0 0 373.78515 494.4458"
   height="494.4458"
   width="373.78516"
   xml:space="preserve"
   id="svg3764"
   version="1.1"
   sodipodi:docname="setto_logo.svg"
   inkscape:version="0.92.3 (2405546, 2018-03-11)"><sodipodi:namedview
     pagecolor="#ffffff"
     bordercolor="#666666"
     borderopacity="1"
     objecttolerance="10"
     gridtolerance="10"
     guidetolerance="10"
     inkscape:pageopacity="0"
     inkscape:pageshadow="2"
     inkscape:window-width="2262"
     inkscape:window-height="871"
     id="namedview44"
     showgrid="false"
     inkscape:zoom="1.3500141"
     inkscape:cx="172.84413"
     inkscape:cy="191.08448"
     inkscape:window-x="0"
     inkscape:window-y="0"
     inkscape:window-maximized="0"
     inkscape:current-layer="svg3764" /><metadata
     id="metadata3770"><rdf:RDF><cc:Work
         rdf:about=""><dc:format>image/svg+xml</dc:format><dc:type
           rdf:resource="http://purl.org/dc/dcmitype/StillImage" /><dc:title /></cc:Work></rdf:RDF></metadata><defs
     id="defs3768" /><g
     transform="matrix(1.3333333,0,0,-1.3333333,-158.31216,1016.384)"
     id="g3772"><path
       d="m 255.504,745.288 c 3.98,0 7.67,-1.26 10.68,-3.409 l 76.509,-58.551 v -0.84 H 177.134 v 0.57 c 3.679,3.2 67.79,58.9 67.79,58.9 3,2.1 6.65,3.33 10.58,3.33"
       style="fill:#000026;fill-opacity:0.73770495;fill-rule:nonzero;stroke:none;stroke-width:0.1"
       id="path4700" /><path
       id="path4702"
       d="m 170.83349,682.48772 c -18.349,0 -33.21973,-14.87998 -33.21973,-33.22998 -1e-5,-6.9 2.11142,-13.31988 5.71142,-18.62988 0,0 27.76958,-34.8902 56.05958,-70.4502 l -0.0103,-0.0103 h -6.42039 c -4.74,0 -8.92922,-2.35923 -11.44922,-5.96924 l -54.52002,-86.94139 c -3.95001,-5.98 -6.25049,-13.13912 -6.25049,-20.84912 0,-20.9 16.94963,-37.85009 37.84863,-37.85009 h 95.56201 2.05957 c -3.28993,0.31037 -6.361,1.37514 -9.03222,3.03661 -8.63,5.989 -15.13916,10.33887 -15.13916,10.33887 -4.53,3.009 -5.77123,9.13013 -2.76123,13.66113 0.19,0.29 0.40009,0.5681 0.62109,0.8291 l 0.44092,0.65919 -6.94043,4.63037 c -4.54,3.011 -5.77023,9.13067 -2.76123,13.65967 0.991,1.48 2.30054,2.62135 3.78955,3.36035 l -5.03906,3.3208 c -4.11,2.73 -5.50947,8.01989 -3.48047,12.35889 0.201,0.44 0.4397,0.87052 0.7207,1.29052 1.40351,2.12181 3.49503,3.50801 5.77881,4.08545 -0.15182,0.19696 -0.26558,0.42052 -0.33545,0.65918 l -5.86963,19.56006 -0.17285,0.57422 h -21.06153 c 8.98,-5.96001 16.35938,-10.5 16.35938,-10.5 4.531,-3.009 5.77024,-9.1192 2.76124,-13.6582 -0.24101,-0.361 -0.49005,-0.69075 -0.76905,-1.01075 -3.19,-3.689 -8.71089,-4.52123 -12.90088,-1.74023 0,0 -5.53958,3.36956 -13.82959,8.80957 7.569,-5.02901 12.78955,-8.50928 12.78955,-8.50928 4.52899,-3.01099 5.77076,-9.12042 2.75977,-13.64941 -3.009,-4.54001 -9.12971,-5.76952 -13.67871,-2.74952 0,0 -1.93165,1.18946 -5.43165,3.43946 4.13,-3.04001 6.37077,-9.71073 3.50977,-14.03174 -3.01,-4.52899 -9.1297,-5.76952 -13.67871,-2.74951 0,0 -8.18094,4.92162 -17.93994,11.39062 0,0 -17.32964,9.629 -5.91065,26.72901 l 16.58057,24.41162 c 3.689,5.81899 10.85027,12.62014 18.25928,12.64014 l -0.0293,1.08984 c 4.06001,6.04 8.6001,13.5 8.6001,13.5 1.88063,2.83063 4.97211,4.3768 8.13281,4.40332 1.89642,0.0159 3.81748,-0.51589 5.51661,-1.64502 4.53999,-3.009 5.77097,-9.1297 2.75097,-13.67871 0,0 -1.33153,-2.74961 -1.56153,-3.09961 l -0.0103,-0.75 c 3.64385,-0.0404 6.56277,-0.0701 9.16992,-0.0982 l 0.35596,0.79688 1.41943,3.15967 h 3.07471 l 4.71973,9.6372 -0.0996,0.085 c 0.0921,0.10736 0.19345,0.2086 0.28711,0.31495 l 5.07275,11.3833 1.11181,2.92529 c -14.56149,4.32329 -26.97555,12.57736 -35.4331,23.27344 l -0.003,0.003 c -6.32779,6.94749 -11.46019,14.99572 -15.09962,23.81836 l -0.0835,-0.0205 c -0.0413,0.16659 -0.0771,0.33541 -0.11718,0.50244 -3.17568,7.84152 -5.16101,16.28763 -5.74512,25.11768 l -0.0733,0.005 c 0.0101,0.18052 0.0283,0.35886 0.0395,0.53906 -0.0968,1.62607 -0.1626,3.2599 -0.1626,4.91016 0,0.82299 0.0124,1.64372 0.0366,2.46094 0.004,0.13182 0.013,0.26236 0.0175,0.39404 0.0226,0.65387 0.0485,1.3071 0.0864,1.95703 0.0227,0.39057 0.0553,0.77839 0.0835,1.16748 0.0309,0.42526 0.0578,0.85097 0.0952,1.27441 0.0253,0.28673 0.0582,0.57107 0.0864,0.85694 0.0508,0.51348 0.10085,1.02741 0.16113,1.53808 0.034,0.28772 0.0759,0.57307 0.11279,0.85987 0.0637,0.49479 0.12664,0.99042 0.19922,1.48242 0.0481,0.32637 0.10327,0.65047 0.15528,0.97558 0.0727,0.45436 0.14396,0.90901 0.22411,1.36084 0.0546,0.30796 0.11625,0.61316 0.17432,0.91993 0.0899,0.47509 0.1787,0.95021 0.27686,1.42236 0.0646,0.31072 0.13549,0.61929 0.20361,0.92871 0.0963,0.43734 0.19262,0.87489 0.2959,1.30957 0.0821,0.34568 0.16983,0.68875 0.25635,1.03272 0.10597,0.42133 0.21122,0.84252 0.32373,1.26123 0.0905,0.33682 0.18655,0.67125 0.28125,1.00634 0.11326,0.40081 0.22795,0.80143 0.34716,1.19971 0.10682,0.35686 0.21804,0.71162 0.32959,1.06641 0.1208,0.38417 0.24138,0.7682 0.36768,1.1499 0.11648,0.35202 0.23776,0.70188 0.35888,1.05176 0.12862,0.3715 0.25731,0.74277 0.39112,1.11181 0.13173,0.36331 0.26757,0.72456 0.4043,1.08545 0.13951,0.36824 0.28014,0.7359 0.4248,1.10156 0.13059,0.33008 0.26515,0.65789 0.3999,0.98585 0.15682,0.38164 0.31513,0.7624 0.47754,1.14111 0.14145,0.3298 0.28502,0.65829 0.43067,0.98583 0.16588,0.37306 0.33408,0.74468 0.50537,1.11475 0.14937,0.32272 0.30211,0.64346 0.45557,0.96387 0.0232,0.0486 0.0454,0.0979 0.0688,0.14648 h -6.28858 c -0.11789,-0.0109 -0.23652,-0.0115 -0.3545,-10e-4 0.007,-6e-4 -0.0113,10e-4 -0.11132,10e-4 -8.74895,0 -15.79981,-7.05 -15.79981,-15.81006 0,-3.97782 1.46068,-7.58688 3.8789,-10.36962 1.15038,-1.28815 0.23731,-3.33067 -1.48974,-3.33252 -0.58932,-5.1e-4 -1.14887,0.2589 -1.5293,0.70898 -3.02176,3.47725 -4.85888,8.031 -4.85888,12.99316 0,10.30959 7.92235,18.80605 17.98975,19.72413 0.19417,0.059 0.39618,0.0882 0.59911,0.0864 h 1.20997 162.65918 c 0.10739,7.5e-4 0.21467,-0.007 0.3208,-0.0234 0.23723,0.01 0.45881,0.0234 0.71924,0.0234 10.91105,0 19.80029,-8.89047 19.80029,-19.81056 0,-4.96216 -1.83884,-9.51655 -4.87354,-12.99462 -0.39411,-0.46596 -0.97938,-0.72649 -1.58935,-0.70752 -1.70083,0.0538 -2.56189,2.0718 -1.42382,3.33691 2.4273,2.78194 3.88623,6.38741 3.88623,10.36523 0,8.75993 -7.05085,15.81006 -15.79981,15.81006 -0.3438,0 -0.70919,-0.0194 -1.11035,-0.0395 -0.16556,-0.008 -0.33138,0.006 -0.49365,0.0395 h -8.38477 c 0.009,-0.0181 0.0177,-0.0361 0.0264,-0.0542 0.16646,-0.3464 0.33635,-0.69094 0.49804,-1.04004 0.16021,-0.34594 0.31328,-0.69589 0.46875,-1.04444 0.15207,-0.34085 0.3066,-0.68062 0.45411,-1.02393 0.16132,-0.37551 0.31439,-0.75537 0.47021,-1.13378 0.13889,-0.33726 0.28153,-0.6727 0.41602,-1.01221 0.15162,-0.38285 0.29495,-0.77009 0.44091,-1.15576 0.12329,-0.3257 0.24993,-0.64938 0.36915,-0.97705 0.15645,-0.43005 0.30325,-0.86446 0.45263,-1.29785 0.10254,-0.29746 0.20844,-0.59309 0.30762,-0.8921 0.12068,-0.36386 0.23442,-0.73104 0.3501,-1.09716 0.12282,-0.38871 0.24762,-0.77628 0.36474,-1.16748 0.0971,-0.32421 0.18666,-0.65116 0.27979,-0.97705 0.11748,-0.41113 0.23745,-0.82112 0.34863,-1.23487 0.11514,-0.42853 0.2213,-0.8607 0.32959,-1.29199 0.0797,-0.31736 0.16281,-0.63333 0.23877,-0.95214 0.0965,-0.40529 0.18491,-0.81409 0.27539,-1.22169 0.0818,-0.36865 0.16781,-0.73545 0.24463,-1.10595 0.0829,-0.39987 0.15588,-0.80359 0.23291,-1.20557 0.0692,-0.36128 0.1421,-0.72103 0.20654,-1.08398 0.0773,-0.4351 0.14501,-0.8736 0.21533,-1.31104 0.0559,-0.34759 0.11553,-0.69393 0.167,-1.04297 0.0843,-0.57185 0.15759,-1.14702 0.22998,-1.72265 0.0244,-0.19376 0.0546,-0.38591 0.0776,-0.58008 0.0728,-0.61427 0.13287,-1.23176 0.19189,-1.8501 0.0173,-0.18115 0.0395,-0.3605 0.0557,-0.54199 0.0428,-0.48139 0.0727,-0.96647 0.10694,-1.45019 0.0236,-0.33325 0.0536,-0.66471 0.0733,-0.99903 3.5e-4,-0.006 7.5e-4,-0.0117 0.002,-0.0175 0.0466,-0.7988 0.082,-1.60054 0.10547,-2.40528 0.0235,-0.80471 0.0352,-1.61253 0.0352,-2.42285 0,-1.62832 -0.064,-3.24091 -0.15821,-4.8457 0.002,-0.0382 0.007,-0.076 0.009,-0.11426 l -0.0161,-0.002 c -0.7535,-12.53169 -4.33596,-24.29865 -10.12353,-34.67578 -0.0974,-0.24531 -0.19277,-0.49278 -0.29297,-0.73681 l -0.0981,0.041 h -10e-4 c -10.261,-17.98091 -27.16087,-31.67857 -47.37305,-37.74169 l 4.24365,-7.56153 2.89454,-5.15772 h 0.002 c 0.0932,-0.0924 0.19215,-0.18062 0.28418,-0.27392 l -0.0733,-0.0733 6.42627,-9.97413 c 0.0455,-0.0418 0.0869,-0.0854 0.13184,-0.12744 0.005,-0.005 0.0121,-0.01 0.0176,-0.0146 0.21016,-0.19719 0.41374,-0.39708 0.61084,-0.59912 0.11067,-0.11301 0.21586,-0.2281 0.32226,-0.34278 0.0908,-0.098 0.18471,-0.1953 0.27246,-0.29443 h 1.85743 l 5.41992,-10.90723 c 0.11838,-0.16756 0.21027,-0.35233 0.27246,-0.54784 l 0.17578,-0.35304 -0.0864,-0.38085 c -0.014,-0.21437 -0.0625,-0.42508 -0.14356,-0.62403 l -3.49951,-15.27685 c 5.24906,-0.22701 9.44092,-4.53749 9.44092,-9.8584 0,0 0.26974,-7.61127 0.26074,-24.80127 4.13901,-3.81899 7.09863,-9.27911 7.09863,-15.3501 0,-3.55901 -0.88827,-6.92061 -2.46826,-9.84961 l -12.82178,-18.01025 c -3.41578,-4.74122 -8.78227,-7.97995 -14.92383,-8.56494 h 72.86573 c 20.9,0 37.84863,16.95009 37.84863,37.85009 0,7.71 -2.29903,14.86912 -6.24902,20.84912 l -54.51855,86.94142 c -2.52,3.61 -6.71069,5.96923 -11.45069,5.96923 h -6.42041 l -0.18017,0.14942 c 22.59,28.4 44.83105,56.34111 52.83105,66.39111 1.78999,2.25 2.8691,3.60012 3.0791,3.87012 0.029,0.03 0.041,0.0498 0.041,0.0498 3.609,5.31001 5.71875,11.72989 5.71875,18.62989 0,18.34999 -14.87898,33.22998 -33.22999,33.22998 h -4.00049 -165.55957 -6.21973 z m 115.5249,-273.93017 h -22.69336 -7.46045 c 0.6525,-0.0616 1.31036,-0.10401 1.97901,-0.10401 h 0.29882 25.87061 0.12891 c 0.6335,0.004 1.25757,0.0451 1.87646,0.10401 z m 3.3545,53.65429 -1.21289,0.81592 c 0.14219,-0.94895 0.93822,-1.66322 1.89697,-1.70215 0.97241,-0.0383 1.83125,0.62889 2.03467,1.58057 -1.12715,-0.6656 -1.71312,-0.22584 -2.71875,-0.69434 z M 288.5,463.02776 c -0.0389,0.25659 -0.0274,0.51829 0.0337,0.7705 l 7.30811,31.96144 3.03955,13.26415 h -81.21239 l 2.3584,-7.86621 5.87109,-19.56006 c 0.15736,-0.51175 0.10301,-1.06524 -0.15088,-1.53661 1.57617,-0.14514 3.13882,-0.67072 4.55421,-1.60694 l 1.69042,-1.12207 c -4.5,3.011 -5.72021,9.10158 -2.72021,13.62158 3.01,4.54 9.12091,5.76951 13.66992,2.74951 z m -62.75245,17.03321 c -0.56194,0.0518 -1.12502,0.0579 -1.68456,0.0132 -0.5616,-0.0426 -1.11524,-0.14762 -1.66114,-0.28565 0.8847,-1.14788 2.6584,-1.00343 3.3457,0.27247 z m -38.55468,180.82763 0.0615,-0.0308 c -0.238,-0.47086 -0.46564,-0.94759 -0.69434,-1.42383 -0.16981,-0.35359 -0.33781,-0.70844 -0.50244,-1.06494 -0.145,-0.31399 -0.28679,-0.63007 -0.42773,-0.94629 -0.15478,-0.34723 -0.30866,-0.69457 -0.4585,-1.04443 -0.13516,-0.31562 -0.26732,-0.63296 -0.39844,-0.95069 -0.15507,-0.37577 -0.30912,-0.75218 -0.45849,-1.13086 -0.12263,-0.31089 -0.24162,-0.62322 -0.36036,-0.93603 -0.13728,-0.36165 -0.27369,-0.7242 -0.40576,-1.08838 -0.12108,-0.33395 -0.23784,-0.67031 -0.35449,-1.00635 -0.12873,-0.37079 -0.25611,-0.74144 -0.37939,-1.11474 -0.1115,-0.33764 -0.21819,-0.67696 -0.3252,-1.0166 -0.11214,-0.35586 -0.22536,-0.7113 -0.33252,-1.06935 -0.10239,-0.34215 -0.19954,-0.68712 -0.29736,-1.03125 -0.11072,-0.38941 -0.22185,-0.77853 -0.32667,-1.1704 -0.0734,-0.27421 -0.14051,-0.55079 -0.21093,-0.82617 0.0194,0.0482 0.0377,0.0968 0.0571,0.14502 0.15718,0.38999 0.32751,0.77319 0.49071,1.16015 0.20056,0.47549 0.39544,0.95449 0.60498,1.42529 0.15609,0.35073 0.32385,0.69489 0.48487,1.04298 0.23185,0.50113 0.45822,1.00445 0.70019,1.5 0.15477,0.31697 0.32162,0.62724 0.48048,0.94188 0.26202,0.51894 0.52089,1.04029 0.79394,1.55274 0.16954,0.31823 0.35067,0.62914 0.52441,0.94482 0.27297,0.49594 0.54149,0.99435 0.82471,1.48389 0.23906,0.41326 0.49054,0.81893 0.73682,1.22754 0.23054,0.38247 0.45461,0.76865 0.69141,1.14697 0.26247,0.41942 0.53853,0.82943 0.80859,1.24366 0.23862,0.36595 0.47037,0.73678 0.71484,1.09863 0.18026,0.26685 0.3703,0.52644 0.55371,0.79102 -0.008,0.0351 -0.0272,0.11337 -0.0352,0.14648 z m 5.85058,0 c 0.0152,-0.0637 0.0367,-0.15384 0.0527,-0.22119 l 0.36328,-0.26514 c -0.0763,-0.10471 -0.14834,-0.21276 -0.22412,-0.31786 0.57847,-2.42163 1.141,-4.77568 1.6831,-7.04444 0.12706,0.15847 0.25389,0.31717 0.38233,0.47461 0.19145,0.23469 0.38705,0.46634 0.58154,0.69873 0.19842,0.2371 0.3961,0.47431 0.59766,0.70898 0.17784,0.20707 0.3588,0.41154 0.53906,0.6167 0.24744,0.28162 0.49513,0.56283 0.74707,0.84082 0.12873,0.14204 0.25975,0.28226 0.38965,0.42335 0.27881,0.30282 0.55814,0.60543 0.84228,0.9038 0.17212,0.18073 0.34744,0.35852 0.52149,0.5376 0.25709,0.26452 0.5151,0.52867 0.77636,0.78955 0.18246,0.18218 0.36779,0.36162 0.55225,0.54199 0.25212,0.24653 0.50441,0.49221 0.76025,0.73535 0.19848,0.18862 0.3999,0.37449 0.60059,0.56104 0.006,0.005 0.0118,0.0107 0.0175,0.0161 z m 13.30957,0 0.29151,-0.34131 c -0.3161,-0.26983 -0.6266,-0.54548 -0.9375,-0.82031 -0.18846,-0.1666 -0.37745,-0.33257 -0.56397,-0.50098 -0.29087,-0.2626 -0.57812,-0.52843 -0.86426,-0.7954 -0.13737,-0.12819 -0.27535,-0.25608 -0.41162,-0.38526 -0.2824,-0.26769 -0.56173,-0.53813 -0.83935,-0.81006 -0.15567,-0.15248 -0.31168,-0.3047 -0.46582,-0.45849 -0.26854,-0.26792 -0.533,-0.53965 -0.79688,-0.81153 -0.14452,-0.14891 -0.29048,-0.29668 -0.43359,-0.44678 -0.27711,-0.29059 -0.54854,-0.58542 -0.82032,-0.88036 -0.12476,-0.13542 -0.25137,-0.26946 -0.375,-0.40577 -0.24714,-0.27249 -0.48986,-0.54862 -0.73242,-0.82471 -0.16137,-0.18369 -0.32406,-0.36551 -0.48339,-0.55077 -0.22782,-0.26488 -0.45024,-0.53322 -0.67383,-0.80127 -0.1443,-0.17301 -0.29107,-0.34425 -0.43359,-0.51856 -0.24546,-0.30017 -0.48643,-0.60419 -0.72657,-0.90821 -0.12345,-0.15629 -0.24856,-0.31144 -0.37061,-0.46875 -0.24466,-0.31533 -0.48323,-0.63428 -0.72217,-0.95361 l 3.98731,-8.65137 c 0.0726,0.0786 0.14225,0.15906 0.21533,0.23731 5.79592,6.2055 13.02423,11.40288 21.24317,15.26807 -0.17902,0.8049 -0.44673,2.00993 -0.98291,4.42236 -0.0463,0.20841 -0.0419,0.19234 -0.0894,0.40576 z m 17.29249,0 c 0.38971,-1.75441 0.59388,-2.67533 0.77782,-3.5039 0.27031,0.11322 0.53344,0.23678 0.80567,0.34717 3.05269,1.23775 6.22737,2.29356 9.50097,3.15673 z m 53.35986,0 c 3.45091,-0.90974 6.78599,-2.0413 9.99023,-3.36621 0.1898,0.78599 0.40742,1.68771 0.81152,3.36621 z m 14.09473,0 c -0.55882,-2.31742 -0.82272,-3.41173 -1.04737,-4.34179 -0.0168,-0.0697 -0.0654,-0.27284 -0.0791,-0.32959 8.85561,-4.11234 16.57071,-9.77077 22.6084,-16.56299 0.0463,-0.0521 0.0901,-0.10601 0.13623,-0.15821 l 4.73584,8.96485 c -0.0893,0.12279 -0.17645,0.24691 -0.2666,0.36914 -0.0915,0.12409 -0.18447,0.2471 -0.27686,0.37061 -0.26051,0.34823 -0.52368,0.69507 -0.79102,1.03857 -0.10779,0.1385 -0.21777,0.27537 -0.32665,0.41308 -0.24974,0.31586 -0.50039,0.63018 -0.75587,0.9419 -0.12475,0.15222 -0.25181,0.30288 -0.37792,0.4541 -0.25489,0.30564 -0.51161,0.61109 -0.77198,0.9126 -0.13222,0.15311 -0.26627,0.30499 -0.3999,0.45703 -0.25065,0.28519 -0.50178,0.56971 -0.75732,0.85107 -0.13775,0.15166 -0.27833,0.30064 -0.41748,0.45117 -0.28131,0.30433 -0.56408,0.60708 -0.85107,0.90675 -0.0883,0.0922 -0.17775,0.1836 -0.26661,0.27538 -0.32024,0.33076 -0.64261,0.65947 -0.96972,0.98438 -0.10825,0.10751 -0.21768,0.21394 -0.32667,0.3208 -0.3116,0.30554 -0.62571,0.60947 -0.94335,0.90967 -0.13124,0.12402 -0.26472,0.24604 -0.39698,0.36914 -0.29236,0.27214 -0.586,0.54246 -0.8833,0.81005 -0.16308,0.14678 -0.32764,0.29261 -0.49218,0.438 -0.3367,0.29751 -0.67383,0.59456 -1.01661,0.88623 l 0.22852,0.26806 z m 19.5747,0 c 0.1932,-0.17947 0.38601,-0.35914 0.57715,-0.54052 0.22839,-0.21671 0.4528,-0.43685 0.67823,-0.65625 0.2101,-0.20452 0.4209,-0.40839 0.62841,-0.61524 0.23885,-0.23805 0.47361,-0.4796 0.70899,-0.7207 0.20024,-0.20515 0.40142,-0.40937 0.59912,-0.6167 0.21902,-0.22967 0.43452,-0.46202 0.65038,-0.69434 0.20774,-0.22357 0.41632,-0.44636 0.6211,-0.67236 0.21321,-0.23529 0.42283,-0.47403 0.63281,-0.71191 0.19632,-0.22243 0.39394,-0.4433 0.5874,-0.66798 0.21716,-0.25215 0.42954,-0.50823 0.64307,-0.76317 0.18073,-0.21582 0.36243,-0.43114 0.54053,-0.64893 0.226,-0.27633 0.44769,-0.55548 0.66944,-0.83496 0.1258,-0.15858 0.25497,-0.31503 0.37938,-0.47461 0.76778,3.12256 1.83071,7.44619 2.11817,8.61767 z m 12.28418,0 0.27539,-0.0674 0.0952,0.0674 z m 1.53076,0 c 0.30909,-0.44374 0.61535,-0.8902 0.91553,-1.34033 0.0735,-0.11025 0.15113,-0.21749 0.22412,-0.32813 0.47192,-0.71532 0.93079,-1.43857 1.37988,-2.16943 0.0215,-0.0349 0.0445,-0.069 0.0659,-0.104 0.46181,-0.75414 0.91067,-1.51654 1.34766,-2.28663 0.007,-0.0127 0.0148,-0.0254 0.022,-0.0381 0.3077,-0.54297 0.60134,-1.09581 0.89648,-1.64648 0.13561,-0.25299 0.2787,-0.50128 0.41163,-0.75586 0.26912,-0.51547 0.5242,-1.03963 0.78222,-1.56152 0.13677,-0.27661 0.28094,-0.54926 0.41455,-0.82764 0.29358,-0.61171 0.57143,-1.23148 0.84961,-1.85156 0.092,-0.2051 0.19093,-0.40631 0.28125,-0.61231 0.33638,-0.76731 0.65872,-1.54228 0.9712,-2.32177 -0.0273,0.10676 -0.0528,0.21421 -0.0806,0.3208 -0.0471,0.18084 -0.0908,0.36313 -0.13915,0.54345 -0.12079,0.4505 -0.25082,0.8975 -0.3794,1.34473 -0.0791,0.2752 -0.1538,0.55222 -0.23584,0.82618 -0.12121,0.4047 -0.25184,0.80511 -0.3794,1.20702 -0.0984,0.31005 -0.1923,0.62182 -0.29442,0.93018 -0.12298,0.37125 -0.25398,0.73865 -0.38233,1.10742 -0.11684,0.3357 -0.23176,0.67274 -0.35303,1.00635 -0.12492,0.34364 -0.25714,0.68402 -0.38672,1.02539 -0.13309,0.35064 -0.2634,0.70208 -0.40136,1.05029 -0.13843,0.34939 -0.28445,0.6946 -0.42774,1.04151 -0.13608,0.32944 -0.26972,0.66014 -0.41015,0.9873 -0.1547,0.36041 -0.31616,0.71759 -0.47608,1.0752 -0.14139,0.31614 -0.28082,0.63384 -0.42627,0.94775 -0.1466,0.31643 -0.29902,0.62923 -0.44971,0.94336 -0.19632,0.40922 -0.39007,0.81935 -0.59326,1.22461 l 0.52295,0.26221 z m -67.06348,-0.52148 -0.27539,-19.01807 c 8.01028,-0.28451 15.61578,-1.9439 22.4751,-4.72558 0.18117,-0.0735 0.35601,-0.15644 0.53613,-0.23145 l 5.96631,18.03076 c -8.65749,3.63154 -18.38349,5.74865 -28.70215,5.94434 z m -3.20068,-10e-4 c -10.44334,-0.20804 -20.27588,-2.3878 -29.0083,-6.11133 l 5.15771,-17.39942 c 7.18956,2.83013 15.17361,4.44012 23.5752,4.53077 z m 68.87842,-3.13623 c -0.83664,-3.40432 -1.85021,-7.52375 -2.04638,-8.32178 0.10725,-0.15552 0.21041,-0.31533 0.3164,-0.47168 0.18051,-0.26628 0.36226,-0.53116 0.53906,-0.79981 0.18008,-0.2736 0.35554,-0.55014 0.53174,-0.82617 0.16483,-0.25822 0.33078,-0.51605 0.49219,-0.77637 0.16583,-0.26745 0.32707,-0.53749 0.48926,-0.80712 0.14239,-0.23673 0.28671,-0.47207 0.42627,-0.71046 0.19336,-0.33028 0.38047,-0.66411 0.56835,-0.99756 0.11539,-0.20477 0.23388,-0.40782 0.34717,-0.61376 0.18068,-0.32842 0.35495,-0.66034 0.53027,-0.9917 0.1119,-0.21146 0.22576,-0.42164 0.33546,-0.63428 0.17346,-0.33625 0.34037,-0.67598 0.50829,-1.01514 0.10657,-0.21521 0.21503,-0.42963 0.31935,-0.64599 0.13695,-0.28408 0.26831,-0.57089 0.40136,-0.85693 0.1336,-0.28724 0.2688,-0.57363 0.39844,-0.8628 0.12024,-0.26821 0.23476,-0.53873 0.35156,-0.80859 0.12217,-0.28226 0.24784,-0.56265 0.36621,-0.84668 0.13984,-0.33554 0.27273,-0.67422 0.40723,-1.01221 0.0927,-0.23293 0.18817,-0.46466 0.27832,-0.69873 0.14456,-0.37539 0.28247,-0.75404 0.42041,-1.13232 0.0715,-0.19596 0.14566,-0.39068 0.21533,-0.58741 0.12097,-0.34159 0.23456,-0.68592 0.3501,-1.02978 0.0868,-0.25829 0.17704,-0.51536 0.26074,-0.77491 0.0883,-0.27393 0.17002,-0.55086 0.25488,-0.82617 0.0977,-0.31707 0.19693,-0.63327 0.29004,-0.95214 0.0763,-0.26122 0.14658,-0.52422 0.21973,-0.78663 0.0942,-0.33803 0.19079,-0.67517 0.27978,-1.01513 0.0611,-0.23332 0.11572,-0.46891 0.17432,-0.70312 0.0927,-0.37069 0.18745,-0.74041 0.27393,-1.11329 0.008,-0.0356 0.0167,-0.0712 0.0249,-0.10693 l 2.37305,6.16113 c -0.0377,0.17537 -0.0783,0.3495 -0.1172,0.52442 -0.10776,0.48427 -0.20964,0.97084 -0.32665,1.45165 -0.002,0.01 -0.005,0.0195 -0.007,0.0293 -0.20634,0.84638 -0.42753,1.68723 -0.66211,2.52246 -0.64654,2.30192 -1.40666,4.55614 -2.26025,6.76611 -0.0859,0.22237 -0.1655,0.44806 -0.25342,0.66943 -0.62246,1.56725 -1.29781,3.10764 -2.02002,4.62305 -0.0217,0.0455 -0.0412,0.0922 -0.063,0.1377 -0.61625,1.28649 -1.27585,2.549 -1.96142,3.7954 -0.15193,0.2762 -0.29738,0.55642 -0.45264,0.83057 -0.30812,0.54413 -0.62959,1.07977 -0.95068,1.61572 -0.11437,0.19089 -0.22239,0.38586 -0.33838,0.57569 -0.35774,0.58549 -0.72999,1.16203 -1.10303,1.73731 -0.0614,0.0947 -0.11983,0.19124 -0.18164,0.28564 z m -132.30176,-0.73535 c -0.12565,-0.19675 -0.25697,-0.38948 -0.38086,-0.58741 -0.1815,-0.29002 -0.35259,-0.58637 -0.53027,-0.8789 -0.28446,-0.46829 -0.57216,-0.93456 -0.84668,-1.40919 -0.19628,-0.3394 -0.38161,-0.68572 -0.57275,-1.02831 -0.24216,-0.43395 -0.48982,-0.86475 -0.72364,-1.30371 -0.22631,-0.42495 -0.4393,-0.85805 -0.65771,-1.2876 -0.18515,-0.3641 -0.37725,-0.72396 -0.55665,-1.09131 -2.35714,-4.82689 -4.21641,-9.93274 -5.5122,-15.25342 -0.17886,-0.73452 -0.34083,-1.47521 -0.49805,-2.21777 l 1.43262,-3.94776 c 0.0605,0.23037 0.12895,0.45754 0.1919,0.68701 0.0982,0.3581 0.19479,0.71637 0.29882,1.07227 0.0568,0.19426 0.11874,0.38648 0.17725,0.58008 0.11727,0.38803 0.23475,0.77631 0.35889,1.16162 0.0738,0.22898 0.15233,0.45608 0.22851,0.68408 0.12311,0.36849 0.24565,0.73713 0.375,1.10303 0.0727,0.20551 0.14952,0.40909 0.22412,0.61377 0.13305,0.36502 0.26655,0.73043 0.40576,1.09277 0.0852,0.22172 0.17472,0.44142 0.26221,0.66211 0.14375,0.36268 0.28663,0.72558 0.43652,1.08545 0.0886,0.2126 0.18178,0.42268 0.27246,0.63428 0.14512,0.33864 0.28893,0.67761 0.43946,1.01367 0.11177,0.24953 0.22951,0.49605 0.34423,0.74414 0.14973,0.32379 0.29792,0.64844 0.45264,0.96973 0.0841,0.17472 0.1722,0.34751 0.25782,0.52148 0.18702,0.38008 0.37438,0.76027 0.56835,1.13672 0.0934,0.18115 0.19071,0.36023 0.28565,0.54053 0.18798,0.357 0.37564,0.71426 0.56983,1.06787 0.10495,0.19112 0.21404,0.3797 0.32079,0.56982 0.19707,0.35098 0.39453,0.70132 0.59766,1.04883 0.11216,0.19185 0.22732,0.38198 0.34131,0.57275 0.19355,0.32396 0.38714,0.64745 0.58593,0.96827 0.13793,0.22256 0.27999,0.44253 0.42042,0.66357 0.19403,0.30544 0.38717,0.61158 0.58593,0.91406 0.13634,0.20746 0.27748,0.41212 0.41602,0.61816 0.19811,0.29466 0.39506,0.5901 0.59765,0.88184 0.14721,0.21199 0.2987,0.42094 0.44825,0.63135 -0.14138,0.59159 -0.8876,3.71275 -1.61719,6.76612 z m 98.26319,-3.38087 -5.96631,-18.03808 c 6.12648,-2.93436 11.569,-6.77747 16.04004,-11.33643 0.48751,-0.4971 0.95517,-1.00842 1.41943,-1.52197 l 10.43115,14.3584 c -5.75106,6.76452 -13.23272,12.43062 -21.92431,16.53808 z m -66.79248,-0.19189 c -8.15513,-3.91614 -15.23966,-9.20205 -20.79639,-15.48926 l 9.20654,-13.28173 c 4.66402,4.64937 10.33295,8.55064 16.72558,11.45654 z m -28.41358,-6.73389 c -0.0755,-0.11332 -0.15224,-0.22608 -0.22705,-0.33984 -0.19676,-0.29919 -0.38821,-0.60163 -0.58008,-0.90381 -0.12223,-0.19251 -0.24744,-0.38343 -0.36768,-0.57715 -0.19823,-0.31939 -0.39025,-0.64271 -0.583,-0.96533 -0.1076,-0.18011 -0.21639,-0.35943 -0.32227,-0.54053 -0.18703,-0.31989 -0.36917,-0.64239 -0.55078,-0.96533 -0.10351,-0.18407 -0.20881,-0.36719 -0.31054,-0.55225 -0.20271,-0.3687 -0.39914,-0.74074 -0.59473,-1.11328 -0.0739,-0.14086 -0.14973,-0.28047 -0.22266,-0.42187 -0.18323,-0.35525 -0.36088,-0.71366 -0.53759,-1.07227 -0.0865,-0.17555 -0.17583,-0.34953 -0.26075,-0.52588 -0.14456,-0.30014 -0.28337,-0.60285 -0.42334,-0.90527 -0.11041,-0.23858 -0.22352,-0.47634 -0.33105,-0.71631 -0.14294,-0.31894 -0.27968,-0.64103 -0.41748,-0.9624 -0.0882,-0.20568 -0.17907,-0.41005 -0.26514,-0.6167 -0.12401,-0.29771 -0.24077,-0.59824 -0.36035,-0.89795 -0.1061,-0.26591 -0.21382,-0.53088 -0.31641,-0.79834 -0.0854,-0.22261 -0.16608,-0.44723 -0.24902,-0.6709 -0.11893,-0.32073 -0.23917,-0.64099 -0.35303,-0.96386 -0.0935,-0.26522 -0.1809,-0.53317 -0.27099,-0.79981 -0.097,-0.28708 -0.19708,-0.57263 -0.29004,-0.86133 -0.11107,-0.34488 -0.21552,-0.69289 -0.32081,-1.04004 -0.0631,-0.2081 -0.12941,-0.41511 -0.19042,-0.62402 -0.10437,-0.35731 -0.20064,-0.71705 -0.29883,-1.07666 -0.0592,-0.2169 -0.12176,-0.43267 -0.17871,-0.65039 -0.0931,-0.35594 -0.17956,-0.71416 -0.26661,-1.07227 -0.0518,-0.21306 -0.10712,-0.42486 -0.15673,-0.63867 -0.0895,-0.38583 -0.17099,-0.77484 -0.25342,-1.16308 -0.0416,-0.19554 -0.0863,-0.38981 -0.12598,-0.58594 -0.0734,-0.36286 -0.13935,-0.7279 -0.20654,-1.09277 l 2.89892,-4.48975 c 0.11475,0.41189 0.2312,0.82344 0.35596,1.23193 2.12031,6.94224 5.68397,13.38354 10.39307,19.09717 z m 125.64112,-0.70605 -4.56739,-8.64551 c 4.90981,-6.24209 8.4732,-13.31038 10.32129,-20.91943 0.0713,-0.29362 0.13448,-0.58957 0.20069,-0.88477 l 3.75146,5.04053 c -0.0688,0.45522 -0.13831,0.91003 -0.2168,1.3623 -0.0383,0.22064 -0.0825,0.43926 -0.12304,0.65918 -0.0659,0.35735 -0.13022,0.71539 -0.20215,1.0708 -0.0495,0.24462 -0.10588,0.48728 -0.1582,0.73096 -0.076,0.35379 -0.14956,0.70876 -0.23145,1.06054 -0.002,0.0107 -0.005,0.0214 -0.007,0.0322 -0.13365,0.57281 -0.27566,1.14215 -0.42481,1.70948 -0.002,0.008 -0.004,0.0167 -0.006,0.0249 -0.14638,0.55588 -0.30037,1.10924 -0.46142,1.65967 -0.053,0.18101 -0.111,0.36012 -0.16554,0.54053 -0.11752,0.38878 -0.23556,0.77714 -0.36035,1.16308 -0.0437,0.13527 -0.0901,0.26939 -0.13476,0.4043 -0.14338,0.43354 -0.28846,0.86658 -0.44092,1.29639 -0.005,0.0116 -0.008,0.0236 -0.0117,0.0352 -0.19194,0.54015 -0.39156,1.07725 -0.59765,1.61133 -0.0528,0.13685 -0.10888,0.27225 -0.1626,0.40869 -0.15844,0.40236 -0.31701,0.80388 -0.4834,1.20264 -0.0811,0.19434 -0.16754,0.38661 -0.25049,0.58008 -0.14785,0.34482 -0.29448,0.69069 -0.44824,1.03272 -0.0747,0.16612 -0.15393,0.32965 -0.22998,0.49511 -0.17749,0.3861 -0.35556,0.7719 -0.54053,1.1543 -0.0463,0.0957 -0.0953,0.19013 -0.14209,0.28565 -0.20748,0.42366 -0.41771,0.84663 -0.63427,1.26562 -0.0727,0.14081 -0.14887,0.28013 -0.22266,0.42041 -0.19814,0.37662 -0.39664,0.7523 -0.60205,1.125 -0.0771,0.13983 -0.15631,0.27821 -0.23437,0.41748 -0.21312,0.38013 -0.42831,0.75934 -0.64893,1.13525 -0.0677,0.11546 -0.13809,0.22919 -0.20655,0.34424 -0.23151,0.38906 -0.4651,0.77723 -0.70458,1.16162 -0.0651,0.10447 -0.13209,0.2079 -0.19776,0.31201 -0.14967,0.23731 -0.30288,0.47205 -0.45556,0.70752 z m -65.59718,-7.29786 c -8.07626,-0.0964 -15.70846,-1.65027 -22.54687,-4.36669 l 5.50342,-15.53174 c 5.15494,1.87317 10.83719,2.92821 16.79736,2.96338 z m 3.20069,-0.0337 -0.24609,-16.98633 c 5.4875,-0.30548 10.70496,-1.46374 15.43945,-3.33398 l 6.73535,15.57861 c -6.63873,2.77737 -14.05677,4.45595 -21.92871,4.7417 z m -57.75,-3.27246 c -4.86672,-6.18873 -8.32602,-13.2131 -9.9873,-20.7539 l 9.59911,-8.91358 c 1.90316,6.0755 5.15579,11.67658 9.47022,16.56445 z m 113.71143,-0.89063 -10.37842,-14.28369 c 4.04021,-5.1105 6.97442,-10.90425 8.49023,-17.14893 0.0307,-0.12627 0.0511,-0.25567 0.0806,-0.38232 l 11.56933,9.61377 c -1.36074,8.06346 -4.76922,15.5879 -9.76171,22.20117 z m -84.65625,-1.43262 c -6.07712,-2.80665 -11.4402,-6.55133 -15.8086,-10.9995 l 9.69287,-12.01319 c 0.14557,0.13482 0.28407,0.27431 0.43213,0.40723 3.19537,2.86845 6.96781,5.29075 11.15918,7.14844 z m 53.54004,-0.46435 -6.72217,-15.54492 c 4.30766,-2.05794 8.14466,-4.71491 11.31738,-7.85156 0.42526,-0.42042 0.83661,-0.85059 1.23779,-1.2876 l 10.76954,12.25635 c -4.43708,5.03286 -10.09064,9.27342 -16.60254,12.42773 z m 52.91455,-6.57275 -0.65332,-1.69629 -1.68604,-4.37256 v -0.002 c 0.055,-0.40993 0.11219,-0.81986 0.15967,-1.23193 0.0302,-0.26268 0.0534,-0.52749 0.0806,-0.79101 0.0387,-0.37483 0.0804,-0.74851 0.1128,-1.125 1.7e-4,-0.002 -1.7e-4,-0.004 0,-0.006 0.053,-0.6171 0.0974,-1.23599 0.1333,-1.85742 0.0223,-0.38551 0.0356,-0.77305 0.0513,-1.16015 0.0106,-0.26321 0.0262,-0.52563 0.0337,-0.78956 0.0183,-0.63894 0.0278,-1.28032 0.0278,-1.92334 0,-1.11619 -0.0287,-2.22717 -0.0835,-3.33105 -0.0254,-0.51129 -0.0568,-1.02083 -0.0937,-1.5293 1.26459,4.83602 2.07034,9.85637 2.38623,15.01025 -0.053,0.80756 -0.11376,1.61354 -0.19189,2.41407 -0.0782,0.80104 -0.17386,1.59699 -0.27686,2.39062 z m -155.41114,-0.5083 c -0.0919,-0.74765 -0.18063,-1.49587 -0.25049,-2.25 -3.1e-4,-0.004 -0.002,-0.007 -0.002,-0.0103 -0.0642,-0.69391 -0.10852,-1.39412 -0.15381,-2.09326 0.10474,-1.68862 0.24555,-3.36802 0.45557,-5.02588 0.0968,-0.76381 0.21833,-1.5196 0.33691,-2.27637 0.0325,0.7809 0.0783,1.55924 0.1377,2.3335 0.0157,0.20542 0.0263,0.41176 0.0439,0.6167 0.0446,0.51898 0.0987,1.03547 0.15527,1.55127 0.0117,0.10667 0.0214,0.21427 0.0337,0.3208 0.0371,0.32393 0.0827,0.64564 0.12451,0.96826 0.0412,0.31808 0.0788,0.63684 0.12451,0.95361 0.0167,0.11569 0.0369,0.23019 0.0542,0.34571 0.0573,0.38272 0.11635,0.76474 0.18017,1.1455 z m 30.96826,-5.84912 c -4.10648,-4.79202 -7.12277,-10.26917 -8.76123,-16.17921 l 11.54297,-7.18505 c 0.12651,0.37752 0.24966,0.75585 0.39111,1.12793 1.43307,3.76941 3.62906,7.25173 6.42921,10.33593 z m 43.19092,-1.11182 c -5.55335,-0.0397 -10.80764,-1.01248 -15.55517,-2.72314 l 7.59228,-16.73292 c 2.40262,0.81565 4.99692,1.31171 7.70068,1.4253 z m 3.19922,-0.085 -0.25927,-17.93408 c 2.32044,-0.0555 4.56476,-0.39036 6.68261,-0.96973 l 7.72706,15.86865 c -4.32107,1.68701 -9.09678,2.74243 -14.1504,3.03516 z m -73.47949,-0.71191 c -0.0425,-0.40292 -0.0867,-0.80502 -0.12159,-1.20996 -7.5e-4,-0.009 -0.002,-0.0176 -0.003,-0.0264 -0.10218,-1.19326 -0.17173,-2.39511 -0.20654,-3.60498 -1.7e-4,-0.006 1.7e-4,-0.0117 0,-0.0175 -0.0173,-0.60778 -0.0264,-1.21792 -0.0264,-1.82959 0,-5.01349 0.59444,-9.89387 1.70654,-14.59717 0.0707,-0.17295 0.14346,-0.34477 0.21534,-0.51709 0.008,-0.0182 0.0158,-0.0361 0.0234,-0.0542 l 1.07226,-1.3711 c -0.15261,0.78113 -0.28937,1.56719 -0.40576,2.35841 -0.35873,2.43863 -0.54346,4.92453 -0.54346,7.44726 0,3.2057 0.30119,6.34927 0.87452,9.41455 l -2.20606,3.42041 z M 300.604,617.14981 289.85791,604.91837 c 2.75725,-3.61983 4.72053,-7.69455 5.69531,-12.06885 l 12.86719,7.27295 c -0.11243,0.57039 -0.22711,1.14037 -0.36475,1.70361 -1.35253,5.53486 -3.92275,10.70645 -7.45166,15.32373 z m 29.12842,-1.73144 -3.50098,-4.70802 c 0.23786,-1.75538 0.38979,-3.53394 0.44385,-5.33349 0.0154,-0.5148 0.0234,-1.03026 0.0234,-1.54834 0,-4.08101 -0.48368,-8.06393 -1.40479,-11.91065 -0.098,-0.40929 -0.21441,-0.81257 -0.32226,-1.21875 l 1.72705,1.47657 0.66504,0.56836 c 1.66258,5.6795 2.56054,11.64953 2.56054,17.81836 0,1.63341 -0.0697,3.2515 -0.19189,4.85596 z m -94.64941,-1.28467 c -4.05542,-1.81118 -7.65739,-4.18885 -10.66114,-6.99024 l 13.00195,-13.24511 c 1.54052,1.35945 3.31393,2.53173 5.26319,3.47754 z m 38.8125,-0.48779 -4.36231,-8.95899 -3.2461,-6.66651 c 2.40276,-0.98578 4.57714,-2.30176 6.43214,-3.88329 l 7.70507,6.64746 5.0625,4.36962 c -3.10634,3.4157 -7.0478,6.31182 -11.5913,8.49171 z m -85.19825,-3.26808 c -0.23202,-1.67848 -0.38158,-3.37761 -0.4336,-5.09619 -0.0146,-0.48309 -0.022,-0.9672 -0.022,-1.45312 0,-5.1038 0.82147,-10.05116 2.34082,-14.76269 h 0.001 l 7.06933,-3.43213 c -0.0738,0.42942 -0.14899,0.85746 -0.20947,1.29052 -0.26427,1.89219 -0.40137,3.81893 -0.40137,5.77296 0,3.08202 0.35297,6.08917 0.99756,9.00732 z m 134.61475,-2.35107 -11.38623,-9.46289 c 0.27271,-1.92361 0.4292,-3.87844 0.4292,-5.86669 0,-3.59393 -0.46193,-7.09284 -1.33447,-10.46046 l 9.40429,4.71534 c 1.99128,5.33591 3.07324,11.00334 3.07324,16.87646 0,1.4117 -0.0641,2.81158 -0.18603,4.19824 z m -101.12842,-3.17431 c -2.8138,-3.17098 -4.91917,-6.76988 -6.12745,-10.64502 l 16.24073,-7.4502 c 0.69337,1.7428 1.67135,3.37231 2.89453,4.84864 z m 65.33936,-2.16944 -12.52735,-10.80762 c 1.54465,-1.79651 2.72871,-3.82491 3.45996,-6.0205 l 14.12989,5.55615 c -0.78663,4.05462 -2.53664,7.86728 -5.0625,11.27197 z m -86.63673,-2.98974 c -0.28395,-1.53277 -0.47862,-3.08948 -0.57421,-4.66699 -0.0467,-0.77158 -0.0703,-1.54832 -0.0703,-2.3291 0,-2.9644 0.34368,-5.86435 0.99317,-8.67481 l 11.08154,-3.50977 c -0.0539,0.25344 -0.11106,0.50636 -0.1582,0.76172 -0.31624,1.71289 -0.48048,3.46833 -0.48048,5.25732 0,2.06455 0.23086,4.07959 0.64746,6.03956 l -0.75732,0.47167 z m 55.61719,-2.92676 -0.15527,-10.71387 -0.007,-0.51709 c 0.66721,-0.0701 1.32162,-0.17447 1.95997,-0.31933 l 3.56103,10.53515 c -1.68307,0.52267 -3.47908,0.87177 -5.3584,1.01514 z m 52.42823,-0.0323 -6.06006,-3.42481 -6.77344,-3.82763 c 0.0389,-0.38173 0.0817,-0.76308 0.10547,-1.14844 0.0369,-0.59674 0.0556,-1.19687 0.0556,-1.80176 0,-2.89504 -0.43299,-5.70177 -1.24218,-8.3833 l 12.1582,2.37305 h 0.002 c 1.28606,3.87937 1.979,7.96203 1.979,12.17578 0,1.36062 -0.0834,2.70557 -0.22412,4.03711 z m -55.63038,-0.0234 c -2.2419,-0.2263 -4.36148,-0.74153 -6.29883,-1.5 l 3.62989,-10.03271 c 0.38681,0.0921 0.77798,0.1768 1.17627,0.24169 0.43766,0.0713 0.88222,0.1241 1.33154,0.16113 z m 11.54444,-2.12256 -3.50977,-10.38721 c 0.28571,-0.12889 0.57129,-0.25829 0.84521,-0.40283 0.25602,-0.13508 0.49923,-0.28536 0.74415,-0.43359 l 6.85693,7.9292 c -1.40995,1.29374 -3.07392,2.40912 -4.93652,3.29443 z m -20.74219,-0.7705 c -1.50452,-0.86535 -2.85313,-1.88856 -4.00635,-3.03956 l 5.8711,-7.53955 c 0.52138,0.32777 1.0716,0.62178 1.64355,0.8877 z m -28.81933,-2.77588 c -0.1711,-0.95618 -0.29587,-1.92465 -0.35742,-2.90479 -0.0334,-0.53241 -0.0498,-1.06697 -0.0498,-1.60547 0,-2.36531 0.32482,-4.67355 0.94043,-6.89648 l 15.43945,-1.00342 c -0.0851,0.67063 -0.13623,1.3504 -0.13623,2.04052 0,1.01561 0.0948,2.0104 0.27393,2.9795 z m 56.66455,-2.13575 -6.49072,-7.50879 c 0.1893,-0.18795 0.38272,-0.37322 0.5581,-0.57129 0.20324,-0.22955 0.38778,-0.47236 0.57129,-0.71484 l 7.73437,3.97559 c -0.46699,1.71592 -1.27478,3.34116 -2.37304,4.81933 z m -33.93751,-0.65625 c -0.82988,-1.24525 -1.45551,-2.58493 -1.85742,-3.98583 1.68991,-1.37094 3.93846,-3.19527 5.91211,-4.79591 0.40933,0.62516 0.88282,1.21231 1.41358,1.75928 l -3.78223,4.85742 z m 54.99757,-0.11279 -13.83252,-5.43896 c 0.0826,-0.66497 0.12597,-1.34048 0.12597,-2.02589 0,-1.0319 -0.10369,-2.04271 -0.2915,-3.02929 h 12.46875 c 1.02731,2.82409 1.5791,5.80766 1.5791,8.88867 0,0.53849 -0.0163,1.07307 -0.0498,1.60547 z m 32.11816,-1.51612 -2.08008,-1.77831 c -0.67471,-1.70118 -1.44337,-3.36675 -2.28955,-4.99512 0.1826,0.25343 0.37408,0.50017 0.55371,0.75586 1.36349,1.94081 2.62969,3.95273 3.81592,6.01757 z m -132.9126,-1.90283 c 1.8101,-4.21829 4.20234,-8.2053 7.09864,-11.89599 1.94994,-2.13819 4.01684,-4.16803 6.19042,-6.0791 l 0.50831,-0.13623 c -0.2946,0.39142 -0.58848,0.78315 -0.87012,1.18213 -2.56811,3.63791 -4.59258,7.58511 -5.9751,11.76269 -0.1975,0.5968 -0.3827,1.19872 -0.55371,1.80469 -0.0272,0.0964 -0.0481,0.19484 -0.0747,0.2915 z m 126.25342,-2.32763 -8.80225,-4.41504 c -1.7541,-4.67717 -4.31204,-9.0475 -7.5454,-12.98877 -0.2904,-0.35397 -0.59104,-0.70182 -0.8921,-1.04883 l 2.86231,0.22851 c 6.11267,5.20063 11.02477,11.37906 14.37744,18.22413 z m -65.37451,-0.0337 c -0.63952,-0.0666 -1.26174,-0.16798 -1.85743,-0.31641 v -8.4375 c 0.37157,0.0704 0.74526,0.13719 1.125,0.1875 0.20036,0.0265 0.40548,0.0392 0.60791,0.0601 l 0.0395,2.72021 z m 3.20068,-0.0337 -0.12158,-8.38624 c 0.61075,-0.0298 1.21547,-0.0745 1.80908,-0.15527 0.1371,-0.0187 0.2697,-0.049 0.40576,-0.0703 l -0.37939,8.28663 c -0.55094,0.14411 -1.12422,0.25116 -1.71387,0.3252 z m -8.25732,-1.58057 c -0.2919,-0.17037 -0.57255,-0.35079 -0.84082,-0.54199 l -0.50391,-8.04785 c 0.43741,0.2023 0.88565,0.38905 1.34473,0.55956 z m 26.74658,-0.0161 -4.94971,-2.54443 4.61865,-0.42334 c 0.21537,0.94696 0.33252,1.91971 0.33252,2.91357 0,0.0182 -10e-4,0.0361 -10e-4,0.0542 z m -13.50879,-0.10547 0.22998,-5.0288 0.12158,-2.66456 c 0.54332,-0.18114 1.07849,-0.37594 1.59375,-0.60058 0.0129,-0.006 0.0252,-0.0119 0.0381,-0.0176 l -0.55664,3.41016 -0.72217,4.42821 -0.002,10e-4 c -0.22636,0.16414 -0.45949,0.32237 -0.70312,0.47168 z m -25.63184,-0.0615 c 0.009,-1.01978 0.13842,-2.01738 0.37354,-2.98682 l 4.54688,-1.68017 c 0.003,0.0138 0.007,0.0272 0.0103,0.041 0.0385,0.17626 0.0755,0.35282 0.12305,0.52588 v 0.002 c -1.31118,1.06309 -2.97291,2.41089 -5.05371,4.09863 z m -33.36035,-0.22559 c 1.65737,-4.91593 4.27469,-9.50101 7.68604,-13.59814 0.37727,-0.45312 0.76527,-0.90081 1.16162,-1.3418 l 3.87305,0.22852 4.93359,0.29004 c -2.91984,3.24497 -5.17083,6.92766 -6.58008,10.91455 z m 103.53955,-3.33837 -12.10986,-2.36133 c -1.57738,-3.55302 -3.84096,-6.82623 -6.64746,-9.72071 l 9.59326,-1.21436 c 3.83396,3.86806 6.91783,8.26687 9.0586,13.04591 0.037,0.0827 0.0689,0.16751 0.10546,0.25049 z m -88.85888,-0.64307 c 0.0113,-0.0267 0.0209,-0.0539 0.0323,-0.0806 1.52786,-3.58114 3.83517,-6.87936 6.76904,-9.75587 0.0474,-0.0465 0.0973,-0.0914 0.14502,-0.13769 0.71432,0.28078 2.94482,1.15936 5.91504,2.29981 1.72099,0.66079 3.44779,1.31647 4.76953,1.79882 0.0112,0.004 0.0166,0.006 0.0278,0.0103 -1.122,1.50118 -2.00824,3.14164 -2.60742,4.88819 z m 26.70849,-1.21729 c -0.0688,-0.33169 -0.12248,-0.66657 -0.14062,-1.00635 l -0.0762,0.005 -0.69433,-4.47069 c 0.19377,0.16466 0.39481,0.32252 0.59766,0.479 z m 25.00635,-0.0586 c 0.0265,-0.20256 0.0632,-0.40181 0.0776,-0.60791 l -0.0659,-0.005 1.19824,-4.32569 c 1.44738,1.34114 2.6165,2.85978 3.44678,4.51025 z m 9.38086,-0.63281 c -0.80541,-1.96241 -1.97688,-3.77622 -3.43799,-5.38917 l 8.57666,-3.45117 c 2.86984,2.60386 5.2027,5.5871 6.87891,8.84034 z m -40.34033,-0.91114 c 0.18872,-0.30553 0.38983,-0.60614 0.60205,-0.90088 0.0647,0.063 0.11242,0.10495 0.17724,0.16846 0.16314,0.15982 0.16518,0.16795 0.32373,0.32519 z m 18.54638,-2.79785 0.65039,-9.53174 c 1.0558,-7.2e-4 2.09748,-0.0529 3.12159,-0.15381 0.30366,-0.0299 0.60188,-0.0729 0.90234,-0.11133 l -2.19434,9.45996 c -0.79895,0.16929 -1.62822,0.28268 -2.47998,0.33692 z m -3.20654,-0.0908 c -0.67343,-0.08 -1.32752,-0.20012 -1.96436,-0.35303 l -0.68261,-9.75879 c 0.23419,0.0492 0.46802,0.0996 0.70459,0.14355 0.84581,0.15705 1.70785,0.27704 2.58105,0.36475 z m 9.25195,-1.45166 1.74903,-7.53809 0.31347,-1.34912 c 1.02859,-0.2526 2.03215,-0.55232 3.0044,-0.90381 0.0634,-0.023 0.12433,-0.0499 0.1875,-0.0733 l -3.48633,8.87696 c -0.38655,0.25299 -0.7839,0.49563 -1.2041,0.7163 -0.18281,0.096 -0.3752,0.18154 -0.56397,0.271 z m -14.50488,-0.0718 c -0.51894,-0.25314 -1.013,-0.5324 -1.48389,-0.8335 l -2.25,-9.84961 c 0.98572,0.45789 2.01066,0.86384 3.06885,1.21436 l 0.0572,0.81445 z m -10.87793,-1.21435 c -0.34229,-0.11655 -0.71941,-0.24642 -1.23633,-0.43506 -1.28854,-0.47025 -3.00709,-1.12221 -4.71973,-1.77979 -2.17866,-0.83652 -3.05349,-1.18324 -4.34472,-1.68897 2.62351,-2.07099 5.61075,-3.8515 8.88867,-5.2705 0.32284,-0.13976 0.65162,-0.27306 0.97998,-0.40577 l 2.14307,5.64112 0.34423,2.21777 c -0.72701,0.53477 -1.41099,1.11234 -2.05517,1.7212 z m 35.10938,-1.25977 c -0.31908,-0.25158 -0.64342,-0.49824 -0.97852,-0.73389 l 0.43213,-1.56153 2.60449,-4.84423 c 2.2546,1.09483 4.35639,2.36491 6.27832,3.78516 l -0.73242,0.29443 z m -30.07471,-3.06885 c -0.0992,-0.20338 -0.19774,-0.40731 -0.28125,-0.61524 l -10e-4,-10e-4 v -10e-4 l -2.97656,-7.83252 c 0.5138,0.41176 1.04661,0.80532 1.5996,1.18067 z m -18.96827,-0.68994 -8.87841,-0.52442 c 3.88494,-3.62671 8.456,-6.73753 13.55859,-9.17871 0.49066,-0.23473 0.98803,-0.4603 1.48828,-0.68261 l 4.87793,3.38671 c -2.14699,0.9436 -4.18779,2.03527 -6.09814,3.26221 -0.39396,0.25303 -0.78323,0.51067 -1.16602,0.7749 -1.33406,0.92092 -2.59435,1.91264 -3.78223,2.96192 z m 61.00196,-0.80859 c -2.50657,-2.07662 -5.32118,-3.89467 -8.3833,-5.39502 l 2.38038,-4.4253 1.00048,-0.28711 c 5.46464,2.28102 10.39649,5.29534 14.61182,8.89014 z m 15.47168,-1.49121 -1.55566,-0.12452 c -1.13158,-1.08193 -2.31198,-2.12623 -3.55079,-3.11865 -0.0561,-0.0449 -0.11505,-0.0871 -0.17138,-0.13183 1.82827,1.05341 3.58689,2.18076 5.27783,3.375 z m -42.33398,-2.58985 0.79394,-11.62207 c 2.22814,-0.008 4.41367,-0.16363 6.54053,-0.46582 0.1632,-0.0232 0.32235,-0.0557 0.48486,-0.0806 l -3.19336,11.74805 c -1.49228,0.26061 -3.03795,0.40713 -4.62597,0.42041 z m -3.22412,-0.15088 c -1.32472,-0.13898 -2.60411,-0.38187 -3.84375,-0.69433 l -1.58057,-11.62354 c 2.00078,0.37833 4.07045,0.62473 6.19336,0.75 z m 11.40234,-1.13672 3.13916,-11.55176 c 1.49706,-0.34923 2.96109,-0.76424 4.37988,-1.25244 0.62861,-0.2163 1.2473,-0.4491 1.85889,-0.69141 l -0.41162,0.90528 -4.9585,10.9292 c -1.25554,0.65265 -2.59529,1.21138 -4.00781,1.66113 z m -18.62549,-0.64892 c -1.27822,-0.51486 -2.48109,-1.12552 -3.60645,-1.81348 l -3.14941,-11.24854 c 1.66839,0.69179 3.41448,1.27277 5.21924,1.75781 z m -12.58008,-4.021 -1.30371,-0.90527 c 0.28438,-0.0931 0.5726,-0.17669 0.8584,-0.26661 z m 40.4004,-0.67676 4.64355,-10.23486 c 0.38904,-0.21015 0.78085,-0.41594 1.16016,-0.63721 0.31101,-0.18143 0.60981,-0.37668 0.91406,-0.56543 l -5.60156,9.98145 -0.37794,0.70312 c -0.23835,0.2557 -0.48336,0.50734 -0.73827,0.75293 z m -35.69679,-0.49365 c -2.24857,-2.32245 -3.81221,-5.07075 -4.45751,-8.02881 l -0.31641,0.0688 -1.89698,-4.26123 c 1.24998,0.91056 2.56728,1.75005 3.95069,2.50929 z m 78.21973,-1.12647 c 0.9907,0 1.98239,-0.65853 2.00098,-1.97314 0,-5.52628 4.44249,-9.9668 9.97266,-9.9668 2.62922,-0.0372 2.62922,-3.96184 0,-3.99902 -5.52977,0 -9.97266,-4.44289 -9.97266,-9.97266 -0.0156,-1.12741 -0.95946,-2.02011 -2.08594,-1.97167 -1.05958,0.0456 -1.89988,0.91121 -1.91455,1.97167 0,5.53038 -4.43904,9.97266 -9.96533,9.97266 -2.62921,0.0372 -2.62921,3.96184 0,3.99902 5.52669,0 9.96533,4.43992 9.96533,9.9668 0.0186,1.31461 1.00881,1.97314 1.99951,1.97314 z m -58.88378,-6.57275 0.59472,-8.70703 c 0.067,1.5e-4 0.13215,0.003 0.19922,0.003 3.65639,0 7.1868,-0.22524 10.55273,-0.63427 l -3.40576,8.37011 -0.0835,0.20508 c -2.52399,0.4812 -5.15469,0.73971 -7.85742,0.76319 z m -3.25489,-0.0923 c -2.3712,-0.15221 -4.67342,-0.4938 -6.88916,-1.00048 l -1.27441,-8.45069 c 0.0928,0.0133 0.18964,0.0222 0.28271,0.0352 0.0216,0.003 0.0443,0.005 0.0659,0.007 0.90705,0.12565 1.82508,0.2391 2.75829,0.33545 0.36743,0.0381 0.74499,0.0632 1.11621,0.0967 0.59952,0.0538 1.19437,0.11365 1.80323,0.15527 0.805,0.0553 1.62323,0.091 2.44336,0.12451 0.0915,0.004 0.18081,0.0112 0.27246,0.0146 z m 14.94141,-1.58935 3.33545,-8.18848 c 2.92331,-0.50022 5.68557,-1.15381 8.23828,-1.95263 l -4.6084,7.39892 c -2.14955,1.09173 -4.45031,2.01122 -6.88037,2.72022 -0.0279,0.008 -0.057,0.0139 -0.085,0.022 z m -25.2041,-0.32226 c -2.10781,-0.67203 -4.11299,-1.50314 -6,-2.46827 l -3.33838,-7.74316 c 1.9616,0.66594 4.04907,1.24747 6.25634,1.73144 0.002,4.3e-4 0.004,7.5e-4 0.006,0.002 0.60798,0.13325 1.22563,0.25761 1.85009,0.37646 z m -10.92481,-5.49317 c -1.7945,-1.31421 -3.41209,-2.77351 -4.83984,-4.34766 l -2.14307,-4.37695 c 0.38622,0.24962 0.79569,0.48799 1.20557,0.72656 0.0479,0.0278 0.0983,0.0544 0.14648,0.082 0.57255,0.32925 1.16377,0.64914 1.77979,0.95654 0.0425,0.0212 0.0876,0.0404 0.13036,0.0615 0.23259,0.11494 0.46905,0.22806 0.70752,0.33985 z m 49.42969,-1.00928 3.22998,-5.15478 c 0.49651,-0.2187 0.96582,-0.4524 1.43848,-0.68408 l -0.65772,1.02099 -1.88379,2.92237 c -0.67661,0.65447 -1.38063,1.29094 -2.12695,1.8955 z m -24.17432,-3.39844 0.39258,-5.7539 -0.0835,-0.006 0.16113,-2.42432 h 14.43898 l -2.95752,7.26865 c -2.83475,0.44154 -5.82376,0.74086 -8.9253,0.8584 -0.005,1.6e-4 -0.009,-1.6e-4 -0.0132,0 -0.99391,0.0375 -1.9985,0.0569 -3.01318,0.0572 z m -3.27685,-0.0718 c -0.16908,-0.007 -0.33403,-0.0185 -0.50244,-0.0264 -0.74721,-0.0352 -1.49331,-0.0707 -2.22657,-0.12597 -0.20569,-0.0154 -0.40485,-0.0402 -0.60937,-0.0571 -0.76685,-0.0639 -1.53134,-0.1319 -2.28077,-0.2168 -0.16097,-0.0182 -0.31594,-0.0425 -0.47607,-0.0615 -1.14968,-0.13767 -2.271,-0.30213 -3.37353,-0.48633 l -0.85108,-5.64258 -0.006,10e-4 -0.22705,-1.49707 h 11.0918 z m 18.97119,-1.53809 1.72558,-4.23633 -0.006,-0.003 0.91846,-2.25439 -0.19775,-0.0806 h 9.46288 l -2.28661,3.66943 c -2.81351,1.1595 -6.05482,2.14904 -9.6167,2.90479 z m -31.77832,-0.0791 c -3.49325,-0.76222 -6.67047,-1.74873 -9.4292,-2.90039 l -1.54834,-3.59473 h 9.99463 z m -13.85303,-5.08154 c -0.50216,-0.29772 -0.97839,-0.60172 -1.42969,-0.91113 -0.0697,-0.048 -0.1351,-0.0968 -0.20361,-0.14502 -0.16739,-0.1175 -0.31625,-0.23844 -0.47608,-0.35743 h 1.5 z m 60.79834,-0.60059 0.50684,-0.81299 h 0.65478 c -0.23528,0.17531 -0.4559,0.35386 -0.70751,0.52589 -0.004,0.002 -0.007,0.005 -0.0103,0.008 -0.13939,0.0952 -0.29954,0.18567 -0.44384,0.27978 z m -69.04395,-4.81347 -0.35742,-0.79688 -2.35107,-5.26172 h 80.09766 l -3.01026,6.0586 z M 320.479,505.91843 c 0.9907,0 1.98093,-0.65707 1.99951,-1.97168 0,-2.13751 1.69102,-3.82763 3.83203,-3.82763 2.62922,-0.0372 2.62922,-3.96332 0,-4.0005 -2.14018,0 -3.83203,-1.69318 -3.83203,-3.83202 -0.0167,-1.12664 -0.96021,-2.01717 -2.08593,-1.96875 -1.05884,0.0455 -1.8974,0.90905 -1.91309,1.96875 0,2.13925 -1.69293,3.83202 -3.8291,3.83202 -2.62922,0.0372 -2.62922,3.96332 0,4.0005 2.137,0 3.8291,1.68971 3.8291,3.82763 0.0186,1.31461 1.0088,1.97168 1.99951,1.97168 z m 23.8667,-8.83741 c 0.99071,0 1.98239,-0.65706 2.00098,-1.97167 0,-10.88744 8.78755,-19.68018 19.68457,-19.68018 2.62921,-0.0372 2.62921,-3.96331 0,-4.00049 -10.89725,0 -19.68457,-8.78953 -19.68457,-19.68896 -0.0166,-1.12744 -0.9624,-2.01831 -2.08887,-1.96875 -1.05809,0.0465 -1.89599,0.90977 -1.91162,1.96875 0,10.8992 -8.79312,19.68896 -19.68164,19.68896 -2.62922,0.0372 -2.62922,3.96331 0,4.00049 10.8883,0 19.68164,8.79297 19.68164,19.68018 0.0186,1.31461 1.00881,1.97167 1.99951,1.97167 z M 149.5039,451.10251 c 0.99071,0 1.98238,-0.65707 2.00098,-1.97168 0,-3.61073 2.884,-6.49512 6.49804,-6.49511 2.62923,-0.0372 2.62923,-3.96186 0,-3.99903 -3.61261,0 -6.49804,-2.89024 -6.49804,-6.50097 -0.0155,-1.12822 -0.96164,-2.01979 -2.08887,-1.97022 -1.05882,0.0466 -1.89702,0.91047 -1.91162,1.97022 0,3.61101 -2.88596,6.50097 -6.49365,6.50097 -2.62922,0.0372 -2.62922,3.96184 0,3.99903 3.60911,0 6.49364,2.8841 6.49365,6.49511 0.0186,1.31461 1.00881,1.97168 1.99951,1.97168 z m 219.61524,-3.70752 c 0.99071,0 1.98239,-0.65707 2.00098,-1.97168 0,-2.13792 1.69102,-3.82763 3.83203,-3.82763 2.62921,-0.0372 2.62921,-3.96332 0,-4.0005 -2.13977,0 -3.83203,-1.69264 -3.83203,-3.83056 -0.0156,-1.12742 -0.95945,-2.01865 -2.08594,-1.97021 -1.05958,0.0456 -1.8999,0.90975 -1.91455,1.97021 0,2.13792 -1.69042,3.83056 -3.82617,3.83056 -2.62922,0.0372 -2.62922,3.96332 0,4.0005 2.137,0 3.82617,1.68971 3.82617,3.82763 0.0186,1.31461 1.00881,1.97168 1.99951,1.97168 z m -166.66407,-1.14258 c 0.99071,0 1.9824,-0.65707 2.00098,-1.97168 0,-6.18328 4.97428,-11.15186 11.16211,-11.15186 2.62922,-0.0372 2.62922,-3.9633 0,-4.00048 -6.18637,0 -11.16211,-4.97768 -11.16211,-11.16211 -0.0156,-1.12741 -0.95945,-2.01866 -2.08594,-1.97022 -1.05958,0.0456 -1.8999,0.90977 -1.91455,1.97022 0,6.1848 -4.97353,11.16211 -11.15186,11.16211 -2.62922,0.0372 -2.62922,3.96331 0,4.00048 6.17979,0 11.15186,4.96821 11.15186,11.15186 0.0186,1.31461 1.00882,1.97168 1.99951,1.97168 z m 128.54737,-3.63574 c 0.99069,0 1.98093,-0.65853 1.99951,-1.97315 0,-4.7265 3.79076,-8.51659 8.52246,-8.51659 2.62922,-0.0372 2.62922,-3.96332 0,-4.0005 -4.73079,0 -8.52246,-3.79414 -8.52246,-8.52539 -0.0166,-1.12744 -0.96093,-2.01831 -2.0874,-1.96875 -1.05808,0.0465 -1.89599,0.90977 -1.91162,1.96875 0,4.73102 -3.79468,8.52539 -8.51954,8.52539 -2.62922,0.0372 -2.62922,3.96332 0,4.0005 4.72578,0 8.51954,3.79032 8.51954,8.51659 0.0186,1.31462 1.0088,1.97315 1.99951,1.97315 z"
       style="fill:#000026;fill-opacity:0.73770495;fill-rule:nonzero;stroke:none;stroke-width:0.09999999" /><path
       d="m 143.944,629.738 c -0.21,0.29 -0.42,0.59 -0.62,0.89 -3.6,5.31 -5.71,11.73 -5.71,18.63 0,18.35 14.87,33.23 33.219,33.23"
       style="fill:none;stroke:#000000;stroke-width:4;stroke-linecap:round;stroke-linejoin:miter;stroke-miterlimit:10;stroke-dasharray:none;stroke-opacity:1"
       id="path4704" /><path
       d="m 374.164,630.578 c -0.92,-1.37 -1.95,-2.66 -3.08,-3.87 -0.19,-0.22 -0.391,-0.43 -0.601,-0.64"
       style="fill:none;stroke:#000000;stroke-width:4;stroke-linecap:round;stroke-linejoin:miter;stroke-miterlimit:10;stroke-dasharray:none;stroke-opacity:1"
       id="path4706" /><path
       d="m 346.693,682.488 c 18.351,0 33.231,-14.88 33.231,-33.23 0,-6.9 -2.111,-13.32 -5.72,-18.63"
       style="fill:none;stroke:#000000;stroke-width:4;stroke-linecap:round;stroke-linejoin:miter;stroke-miterlimit:10;stroke-dasharray:none;stroke-opacity:1"
       id="path4708" /><path
       d="m 170.833,682.488 h 175.86"
       style="fill:none;stroke:#000000;stroke-width:4;stroke-linecap:round;stroke-linejoin:miter;stroke-miterlimit:10;stroke-dasharray:none;stroke-opacity:1"
       id="path4710" /><path
       d="m 353.974,633.278 c -0.031,-0.04 -0.071,-0.09 -0.111,-0.13"
       style="fill:none;stroke:#ffffff;stroke-width:4;stroke-linecap:round;stroke-linejoin:miter;stroke-miterlimit:10;stroke-dasharray:none;stroke-opacity:1"
       id="path4714" /><path
       d="m 163.554,633.368 c 0.43,-0.56 1.19297,-1.26563 10.33297,-12.90563"
       style="fill:none;stroke:#000000;stroke-width:4;stroke-linecap:round;stroke-linejoin:miter;stroke-miterlimit:10;stroke-dasharray:none;stroke-opacity:1"
       id="path4720" /><path
       d="m 353.974,633.278 c -0.87,-1.13 -4.27881,-4.89795 -13.97781,-17.34795"
       style="fill:none;stroke:#000000;stroke-width:4;stroke-linecap:round;stroke-linejoin:miter;stroke-miterlimit:10;stroke-dasharray:none;stroke-opacity:1"
       id="path4724" /><path
       d="m 266.184,741.879 76.509,-58.551"
       style="fill:none;stroke:#000000;stroke-width:4;stroke-linecap:round;stroke-linejoin:miter;stroke-miterlimit:10;stroke-dasharray:none;stroke-opacity:1"
       id="path4728" /><path
       d="m 158.583,408.558 c -20.899,0 -37.849,16.95 -37.849,37.85 0,7.71 2.3,14.87 6.25,20.85"
       style="fill:none;stroke:#000000;stroke-width:3.99975014;stroke-linecap:round;stroke-linejoin:miter;stroke-miterlimit:10;stroke-dasharray:none;stroke-opacity:1"
       id="path4732" /><path
       d="M 254.144,408.558 H 158.583"
       style="fill:none;stroke:#000000;stroke-width:4;stroke-linecap:round;stroke-linejoin:miter;stroke-miterlimit:10;stroke-dasharray:none;stroke-opacity:1"
       id="path4734" /><path
       d="m 199.374,560.168 h -6.42 c -4.74,0 -8.93,-2.36 -11.45,-5.97 l -54.52,-86.94"
       style="fill:none;stroke:#000000;stroke-width:4;stroke-linecap:round;stroke-linejoin:miter;stroke-miterlimit:10;stroke-dasharray:none;stroke-opacity:1"
       id="path4736" /><path
       d="m 359.224,408.558 c 20.9,0 37.849,16.95 37.849,37.85 0,7.71 -2.3,14.87 -6.25,20.85"
       style="fill:none;stroke:#000000;stroke-width:4;stroke-linecap:round;stroke-linejoin:miter;stroke-miterlimit:10;stroke-dasharray:none;stroke-opacity:1"
       id="path4740" /><path
       d="m 254.144,408.558 h 105.08"
       style="fill:none;stroke:#000000;stroke-width:4;stroke-linecap:round;stroke-linejoin:miter;stroke-miterlimit:10;stroke-dasharray:none;stroke-opacity:1"
       id="path4742" /><path
       d="m 318.434,560.168 h 6.42 c 4.74,0 8.93,-2.36 11.45,-5.97 l 54.519,-86.94"
       style="fill:none;stroke:#000000;stroke-width:4;stroke-linecap:round;stroke-linejoin:miter;stroke-miterlimit:10;stroke-dasharray:none;stroke-opacity:1"
       id="path4744" /><path
       d="m 177.134,683.058 c 3.679,3.2 67.79,58.9 67.79,58.9 3,2.1 6.65,3.33 10.58,3.33 3.98,0 7.67,-1.26 10.68,-3.409 0.01,0 0.03,-0.011 0.04,-0.021"
       style="fill:none;stroke:#000000;stroke-width:4;stroke-linecap:round;stroke-linejoin:miter;stroke-miterlimit:10;stroke-dasharray:none;stroke-opacity:1"
       id="path4746" /><path
       d="m 302.084,539.998 c 5.279,6.64 10.739,13.49 16.17,20.32 22.59,28.4 44.83,56.34 52.83,66.39 1.79,2.25 2.87,3.6 3.08,3.87 0.029,0.03 0.04,0.05 0.04,0.05"
       style="fill:none;stroke:#000000;stroke-width:4;stroke-linecap:round;stroke-linejoin:miter;stroke-miterlimit:10;stroke-dasharray:none;stroke-opacity:1"
       id="path4748" /><path
       d="m 143.324,630.628 c 0,0 27.77,-34.89 56.06,-70.45 4.76,-5.98 9.53,-11.98 14.19,-17.83"
       style="fill:none;stroke:#000000;stroke-width:4;stroke-linecap:round;stroke-linejoin:miter;stroke-miterlimit:10;stroke-dasharray:none;stroke-opacity:1"
       id="path4750" /><g
       id="g6436"><g
         id="g6423" /></g><path
       d="m 214.26352,500.583 c -2.35423,0 -12.94363,0 -19.61157,0"
       style="fill:none;stroke:#000000;stroke-width:3.6816349;stroke-linecap:round;stroke-linejoin:miter;stroke-miterlimit:10;stroke-dasharray:none;stroke-opacity:1"
       id="path4956" /><path
       d="m 184.1321,519.42387 c 4.66617,0 12.98084,-0.10267 20.1011,-0.20307 3.9262,-0.0564 7.49635,-0.10154 9.8808,-0.13652 0.11317,-0.0102 0.22721,-0.0102 0.33951,-0.0102"
       style="fill:none;stroke:#000000;stroke-width:3.96413207;stroke-linecap:round;stroke-linejoin:miter;stroke-miterlimit:10;stroke-dasharray:none;stroke-opacity:1"
       id="path4958" /><path
       d="m 252.143,422.523 -21.81,14.56 -6.94,4.63 c -4.54,3.011 -5.77,9.131 -2.761,13.66 0.991,1.48 2.301,2.621 3.79,3.36 0.011,0 0.011,0.011 0.02,0.011"
       style="fill:none;stroke:#000000;stroke-width:4;stroke-linecap:round;stroke-linejoin:miter;stroke-miterlimit:10;stroke-dasharray:none;stroke-opacity:1"
       id="path4960" /><path
       d="m 194.962,500.583 c 8.98,-5.96 16.36,-10.5 16.36,-10.5 4.531,-3.009 5.77,-9.12 2.761,-13.659 -0.241,-0.361 -0.491,-0.691 -0.77,-1.011 -3.19,-3.689 -8.71,-4.52 -12.9,-1.739 0,0 -5.54,3.369 -13.83,8.809"
       style="fill:none;stroke:#000000;stroke-width:4;stroke-linecap:round;stroke-linejoin:miter;stroke-miterlimit:10;stroke-dasharray:none;stroke-opacity:1"
       id="path4962" /><path
       d="m 182.982,461.043 c -2.58,1.661 -6,3.881 -10.129,6.611"
       style="fill:none;stroke:#000000;stroke-width:4;stroke-linecap:round;stroke-linejoin:miter;stroke-miterlimit:10;stroke-dasharray:none;stroke-opacity:1"
       id="path4964" /><path
       d="m 183.922,484.244 c 0.911,-0.61 1.8,-1.201 2.661,-1.761 7.569,-5.029 12.79,-8.509 12.79,-8.509 4.529,-3.011 5.77,-9.121 2.759,-13.65 -3.009,-4.54 -9.13,-5.77 -13.679,-2.75 0,0 -1.931,1.19 -5.431,3.44"
       style="fill:none;stroke:#000000;stroke-width:4;stroke-linecap:round;stroke-linejoin:miter;stroke-miterlimit:10;stroke-dasharray:none;stroke-opacity:1"
       id="path4966" /><path
       d="m 182.402,461.443 c 0.201,-0.119 0.39,-0.259 0.58,-0.4 0.01,-0.009 0.03,-0.02 0.04,-0.029 4.13,-3.04 6.371,-9.71 3.51,-14.031 -3.01,-4.529 -9.13,-5.77 -13.679,-2.75 0,0 -8.181,4.921 -17.94,11.39 0,0 -17.33,9.63 -5.911,26.73 l 16.581,24.411"
       style="fill:none;stroke:#000000;stroke-width:4;stroke-linecap:round;stroke-linejoin:miter;stroke-miterlimit:10;stroke-dasharray:none;stroke-opacity:1"
       id="path4968" /><path
       d="m 165.583,506.764 c 3.689,5.819 10.85,12.62 18.259,12.64 0.011,0 0.031,0 0.04,0 0.09,0 0.181,0 0.27,0"
       style="fill:none;stroke:#000000;stroke-width:4;stroke-linecap:round;stroke-linejoin:miter;stroke-miterlimit:10;stroke-dasharray:none;stroke-opacity:1"
       id="path4970" /><path
       d="m 258.183,408.454 c -4.04,0 -7.81,1.149 -11.011,3.14 -8.63,5.989 -15.14,10.34 -15.14,10.34 -4.53,3.009 -5.77,9.129 -2.76,13.66 0.19,0.29 0.4,0.569 0.621,0.83"
       style="fill:none;stroke:#000000;stroke-width:4;stroke-linecap:round;stroke-linejoin:miter;stroke-miterlimit:10;stroke-dasharray:none;stroke-opacity:1"
       id="path4972" /><path
       d="m 301.282,417.123 c -3.76,-5.219 -9.88,-8.629 -16.8,-8.669"
       style="fill:none;stroke:#000000;stroke-width:4;stroke-linecap:round;stroke-linejoin:miter;stroke-miterlimit:10;stroke-dasharray:none;stroke-opacity:1"
       id="path4974" /><path
       d="m 301.96108,494.75409 c 5.441,-0.011 7.25192,-4.16009 7.25192,-9.62009 0,0 0.269,-7.611 0.26,-24.801 4.139,-3.819 7.099,-9.279 7.099,-15.35 0,-3.559 -0.889,-6.92 -2.469,-9.849 -0.021,-0.04 -0.04,-0.08 -0.061,-0.12"
       style="fill:none;stroke:#000000;stroke-width:4;stroke-linecap:round;stroke-linejoin:miter;stroke-miterlimit:10;stroke-dasharray:none;stroke-opacity:1"
       id="path4976" /><path
       d="m 258.183,408.454 h 26.17"
       style="fill:none;stroke:#000000;stroke-width:4;stroke-linecap:round;stroke-linejoin:miter;stroke-miterlimit:10;stroke-dasharray:none;stroke-opacity:1"
       id="path4978" /><path
       d="m 301.282,417.123 12.821,18.011 0.049,0.07"
       style="fill:none;stroke:#000000;stroke-width:4;stroke-linecap:round;stroke-linejoin:miter;stroke-miterlimit:10;stroke-dasharray:none;stroke-opacity:1"
       id="path4980" /><path
       d="m 231.992,477.333 c -4.5,3.011 -5.72,9.101 -2.72,13.621 3.01,4.54 9.121,5.77 13.67,2.75 l 46.771,-31.491 5.989,-4.029"
       style="fill:none;stroke:#000000;stroke-width:4;stroke-linecap:round;stroke-linejoin:miter;stroke-miterlimit:10;stroke-dasharray:none;stroke-opacity:1"
       id="path4984" /><path
       d="m 263.282,456.563 -1.76,1.17"
       style="fill:none;stroke:#000000;stroke-width:4;stroke-linecap:round;stroke-linejoin:miter;stroke-miterlimit:10;stroke-dasharray:none;stroke-opacity:1"
       id="path4986" /><path
       d="m 256.143,437.853 -31.721,20.88 -5.04,3.321 c -4.11,2.73 -5.509,8.02 -3.48,12.359 0.201,0.44 0.44,0.871 0.721,1.291 1.739,2.629 4.529,4.149 7.44,4.37 2.129,0.17 4.319,-0.35 6.239,-1.62 l 1.69,-1.121 29.53,-19.6"
       style="fill:none;stroke:#000000;stroke-width:4;stroke-linecap:round;stroke-linejoin:miter;stroke-miterlimit:10;stroke-dasharray:none;stroke-opacity:1"
       id="path4988" /><path
       d="m 183.813,520.494 c 4.06,6.04 8.6,13.5 8.6,13.5 3.009,4.529 9.119,5.77 13.65,2.759 4.54,-3.009 5.77,-9.13 2.75,-13.679 0,0 -1.331,-2.75 -1.561,-3.1"
       style="fill:none;stroke:#110000;stroke-width:4;stroke-linecap:round;stroke-linejoin:round;stroke-miterlimit:4;stroke-dasharray:none;stroke-opacity:1"
       id="path4990" /></g></svg>